/* XPM */
static char * door_1_xpm[] = {
"64 64 409 2",
"  	c #ACBECC",
". 	c #BCCEDC",
"+ 	c #5B6D7B",
"@ 	c #516371",
"# 	c #BDD0DE",
"$ 	c #AABDCB",
"% 	c #ABC1CE",
"& 	c #ACC2CF",
"* 	c #AAC2CE",
"= 	c #AFC2D0",
"- 	c #ABBDCB",
"; 	c #AFC1CF",
"> 	c #B8CAD8",
", 	c #8497A5",
"' 	c #273A48",
") 	c #B3C6D4",
"! 	c #ACBFCD",
"~ 	c #A9BFCC",
"{ 	c #ADC3D0",
"] 	c #AAC0CD",
"^ 	c #A6BECA",
"/ 	c #BAD0DD",
"( 	c #5B6D79",
"_ 	c #51636F",
": 	c #BDD1DC",
"< 	c #A7BFC9",
"[ 	c #A9C4CD",
"} 	c #A9C6CE",
"| 	c #ABC3CD",
"1 	c #ACC2CD",
"2 	c #ABBFCA",
"3 	c #B9CBD7",
"4 	c #72808D",
"5 	c #3A4A57",
"6 	c #BBCDD9",
"7 	c #AAC0CB",
"8 	c #ABC3CF",
"9 	c #AEC1CF",
"0 	c #B2C5D3",
"a 	c #98AAB8",
"b 	c #1C2E3C",
"c 	c #ADC0CE",
"d 	c #A9C1CD",
"e 	c #BED2DD",
"f 	c #6D818C",
"g 	c #3B4F5A",
"h 	c #AABEC9",
"i 	c #AEC0CE",
"j 	c #BED0DE",
"k 	c #5C6E7C",
"l 	c #526472",
"m 	c #BED1DF",
"n 	c #ABBECC",
"o 	c #AEC4D1",
"p 	c #ACC4D0",
"q 	c #B1C4D2",
"r 	c #ADBFCD",
"s 	c #B2C4D2",
"t 	c #BACCDA",
"u 	c #8699A7",
"v 	c #2A3D4B",
"w 	c #B6C9D7",
"x 	c #AFC5D2",
"y 	c #A8C0CC",
"z 	c #BCD2DF",
"A 	c #5D6F7B",
"B 	c #536571",
"C 	c #BFD3DE",
"D 	c #A9C1CB",
"E 	c #ABC6CF",
"F 	c #ABC8D0",
"G 	c #ADC5CF",
"H 	c #AEC4CF",
"I 	c #ADC1CC",
"J 	c #BCCEDA",
"K 	c #758390",
"L 	c #3D4D5A",
"M 	c #BED0DC",
"N 	c #AAC2CC",
"O 	c #B0C3D1",
"P 	c #B4C7D5",
"Q 	c #9AACBA",
"R 	c #1E303E",
"S 	c #C0D4DF",
"T 	c #6F838E",
"U 	c #3E525D",
"V 	c #ACC0CB",
"W 	c #BDCFDD",
"X 	c #5A6C7A",
"Y 	c #506270",
"Z 	c #BCCFDD",
"` 	c #A9BCCA",
" .	c #B0C2D0",
"..	c #B9CBD9",
"+.	c #8598A6",
"@.	c #283B49",
"#.	c #A8C3CC",
"$.	c #A8C5CD",
"%.	c #74828F",
"&.	c #3C4C59",
"*.	c #BDCFDB",
"=.	c #ABC1CC",
"-.	c #AAC5CE",
";.	c #A8BECB",
">.	c #97A9B7",
",.	c #6C808B",
"'.	c #293C4A",
").	c #B5C8D6",
"!.	c #A7BFCB",
"~.	c #BBD1DE",
"{.	c #BFD1DF",
"].	c #536573",
"^.	c #BFD2E0",
"/.	c #B1C3D1",
"(.	c #B0C6D3",
"_.	c #BDD3E0",
":.	c #5C6E7A",
"<.	c #526470",
"[.	c #A8C0CA",
"}.	c #AAC7CF",
"|.	c #ACC4CE",
"1.	c #ADC3CE",
"2.	c #ADC5D1",
"3.	c #6E828D",
"4.	c #3C505B",
"5.	c #AABCCA",
"6.	c #B7C9D7",
"7.	c #8396A4",
"8.	c #263947",
"9.	c #5A6C78",
"0.	c #BCD0DB",
"a.	c #A9BFCA",
"b.	c #99ABB9",
"c.	c #1D2F3D",
"d.	c #B5C7D5",
"e.	c #879AA8",
"f.	c #B8CAD6",
"g.	c #3E4E5B",
"h.	c #1F313F",
"i.	c #BACED9",
"j.	c #A8BCC7",
"k.	c #B7C9D5",
"l.	c #B9CDD8",
"m.	c #B4C6D4",
"n.	c #A9BDC8",
"o.	c #BBCDDB",
"p.	c #A5BDC9",
"q.	c #B9CFDC",
"r.	c #A6BEC8",
"s.	c #A7C2CB",
"t.	c #A7C4CC",
"u.	c #A8BEC9",
"v.	c #3D515C",
"w.	c #A7BBC6",
"x.	c #50626E",
"y.	c #B6C8D4",
"z.	c #73818E",
"A.	c #B8CCD7",
"B.	c #B3C5D3",
"C.	c #A7BDCA",
"D.	c #A8BBC9",
"E.	c #A4BCC8",
"F.	c #B8CEDB",
"G.	c #A5BDC7",
"H.	c #A6C3CB",
"I.	c #A7BDC8",
"J.	c #A6BAC5",
"K.	c #BBCEDC",
"L.	c #BBCFDA",
"M.	c #A6C1CA",
"N.	c #ABBDC9",
"O.	c #B7C7D4",
"P.	c #5D6F7D",
"Q.	c #4F616F",
"R.	c #B9CCDA",
"S.	c #5C6C79",
"T.	c #51616E",
"U.	c #A6BCC7",
"V.	c #3F4D5A",
"W.	c #B9C9D6",
"X.	c #96A8B6",
"Y.	c #70828E",
"Z.	c #3C4E5A",
"`.	c #B7CBD6",
" +	c #5B6B78",
".+	c #75818F",
"++	c #4E606E",
"@+	c #A6BCC9",
"#+	c #A3BBC7",
"$+	c #B7CDDA",
"%+	c #74808E",
"&+	c #A9BBC9",
"*+	c #AABCC8",
"=+	c #B6C6D3",
"-+	c #B8CBD9",
";+	c #A5BBC6",
">+	c #3E4C59",
",+	c #B8C8D5",
"'+	c #95A7B5",
")+	c #3B4D59",
"!+	c #5A6A77",
"~+	c #50606D",
"{+	c #6F818D",
"]+	c #B6CAD5",
"^+	c #4D5F6D",
"/+	c #A7BAC8",
"(+	c #A5BBC8",
"_+	c #A2BAC6",
":+	c #B6CCD9",
"<+	c #737F8D",
"[+	c #A8BAC8",
"}+	c #A9BBC7",
"|+	c #B5C5D2",
"1+	c #B7CAD8",
"2+	c #A4BAC5",
"3+	c #94A6B4",
"4+	c #3A4C58",
"5+	c #A5C0C9",
"6+	c #3D4B58",
"7+	c #B5C9D4",
"8+	c #A6B9C7",
"9+	c #BACCD8",
"0+	c #4F5F6C",
"a+	c #A4BFC8",
"b+	c #A7B9C7",
"c+	c #A5B8C6",
"d+	c #A3B9C4",
"e+	c #B6C8D6",
"f+	c #A1B9C5",
"g+	c #596976",
"h+	c #727E8C",
"i+	c #4C5E6C",
"j+	c #A4BAC7",
"k+	c #B5CBD8",
"l+	c #A8BAC6",
"m+	c #6E808C",
"n+	c #A6B8C6",
"o+	c #A4B7C5",
"p+	c #8295A3",
"q+	c #4E5E6B",
"r+	c #A2B8C3",
"s+	c #A4BCC6",
"t+	c #A3BEC7",
"u+	c #B4C4D1",
"v+	c #3C4A57",
"w+	c #586875",
"x+	c #A3B9C6",
"y+	c #A1B7C4",
"z+	c #717D8B",
"A+	c #93A5B3",
"B+	c #A3B6C4",
"C+	c #A1B7C2",
"D+	c #A6B8C4",
"E+	c #A5B9C4",
"F+	c #B3C5D1",
"G+	c #B4C6D2",
"H+	c #8194A2",
"I+	c #B3C3D0",
"J+	c #B2C4D0",
"K+	c #A4B8C3",
"L+	c #394B57",
"M+	c #A5B7C3",
"N+	c #A2B5C3",
"O+	c #A3BBC5",
"P+	c #A5B7C5",
"Q+	c #4B5D6B",
"R+	c #253846",
"S+	c #A0B6C1",
"T+	c #A2BDC6",
"U+	c #6D7F8B",
"V+	c #8093A1",
"W+	c #4D5D6A",
"X+	c #B2C2CF",
"Y+	c #3B4956",
"Z+	c #A3B7C2",
"`+	c #A2B8C5",
" @	c #92A4B2",
".@	c #B1C3CF",
"+@	c #384A56",
"@@	c #A4B6C2",
"#@	c #596B79",
"$@	c #A1B4C2",
"%@	c #A2BAC4",
"&@	c #A4B6C4",
"*@	c #243745",
"=@	c #9FB5C0",
"-@	c #707C8A",
";@	c #6C7E8A",
">@	c #A0B8C4",
",@	c #9EB4BF",
"'@	c #A1B9C3",
")@	c #A1BCC5",
"!@	c #A0BBC4",
"~@	c #A0B3C1",
"{@	c #B1C1CE",
"]@	c #A3B5C3",
"^@	c #B0C2CE",
"/@	c #4A5C6A",
"(@	c #B5C7D3",
"_@	c #A0B8C2",
":@	c #A3B5C1",
"<@	c #A2B6C1",
"[@	c #9FB7C3",
"}@	c #4C5C69",
"|@	c #9DB3BE",
"1@	c #9FBAC3",
"2@	c #9FB2C0",
"3@	c #B0C0CD",
"4@	c #3A4855",
"5@	c #A2B4C2",
"6@	c #AFC1CD",
"7@	c #374955",
"8@	c #586A78",
"9@	c #495B69",
"0@	c #9FB7C1",
"a@	c #A2B4C0",
"b@	c #6F7B89",
"c@	c #A0B6C3",
"d@	c #91A3B1",
"e@	c #A1B5C0",
"f@	c #6B7D89",
"g@	c #9FB3BE",
"h@	c #6E7C89",
"i@	c #596B77",
"j@	c #4A5C68",
"k@	c #A1B3BF",
"l@	c #80929E",
"m@	c #253743",
"n@	c #9FB1BD",
"o@	c #576975",
"p@	c #4F616D",
"q@	c #A0B4BF",
"r@	c #6D7D8A",
"s@	c #394956",
"t@	c #A7B9C5",
"u@	c #92A2AF",
"v@	c #1E2E3B",
"w@	c #A2B2BF",
"x@	c #A4B4C1",
"y@	c #566874",
"z@	c #4E606C",
"A@	c #495B67",
"B@	c #243642",
"C@	c #A0B2BE",
"D@	c #AEC0CC",
"E@	c #A3B3C0",
"F@	c #586A76",
"G@	c #7F919D",
"H@	c #9EB0BC",
"I@	c #91A1AE",
"J@	c #1D2D3A",
"K@	c #A1B1BE",
"L@	c #556773",
"M@	c #4D5F6B",
"N@	c #ADBFCB",
"O@	c #364854",
"P@	c #485A66",
"Q@	c #7E909C",
"R@	c #233541",
"S@	c #9DAFBB",
"T@	c #A0B0BD",
"U@	c #4C5E6A",
"V@	c #475965",
"W@	c #9CAEBA",
"X@	c #546672",
"Y@	c #6A7C88",
"Z@	c #90A0AD",
"`@	c #9FAFBC",
" #	c #354753",
".#	c #9EB2BD",
"+#	c #4B5D69",
"@#	c #ACBECA",
"##	c #9CB2BD",
"$#	c #1C2C39",
"%#	c #465864",
"&#	c #697B87",
"*#	c #8F9FAC",
"=#	c #9BADB9",
"-#	c #8EA0AC",
";#	c #1B2D39",
">#	c #9EAEBB",
",#	c #9DB1BC",
"'#	c #9BAEBC",
")#	c #556876",
"!#	c #4A5D6B",
"~#	c #9DB0BE",
"{#	c #9EB1BF",
"]#	c #7C8F9D",
"^#	c #192C3A",
"/#	c #97AAB8",
"(#	c #9CAFBD",
"_#	c #526573",
":#	c #506371",
"<#	c #6C7F8D",
"[#	c #3C4F5D",
"}#	c #9AADBB",
"|#	c #99ACBA",
"1#	c #899CAA",
"2#	c #172A38",
"3#	c #9DAFBD",
"4#	c #718492",
"5#	c #394C5A",
"6#	c #95A8B6",
"7#	c #566977",
"8#	c #798C9A",
"9#	c #657886",
"0#	c #3B4E5C",
"a#	c #8A9DAB",
"b#	c #697C8A",
"  . + @ # $ % & * % = - ; > , ' ) ! & ~ { ] & % ^ / ( _ : < [ } | 1 2 3 4 5 6 7 < [ 8 * & ~ 9 0 a b -   c c ] ] d * 2 e f g e h ",
"i j k l m n { o p { q r s t u v w = o % x & o { y z A B C D E F G H I J K L M 1 N E p 8 o ] O P Q R r i = = & & 8 p I S T U S V ",
"r W X Y Z ` ] % * % O    ...+.@.P 9 { ~ o ] { & ^ / ( _ : < #.$.| 1 V 6 %.&.*.=.D -.* d & ;.c q >.b   r 9 9 % ] * 8 2 : ,.g : h ",
"i W X Y Z ` % & * % O    ...+.'.).9 { ] o % { { !.~.( _ : < #.$.N =.V 6 %.&.*.=.D -.* d & ;.9 0 a b   i 9 = & % 8 8 h : ,.g : h ",
"; {.k ].^.! { o p { q r /.t u '.).= x & (.{ x o d _.:.<.e [.-.}.|.1.I J %.L M 1 N E p 8 o % O P Q R i ; O O { { p 2.V C 3.4.e 2 ",
"r W + @ # n & { 8 & 9 5.i 6.7.8.) ! { ~ o % { & ^ ~.9._ 0.< #.$.N =.h 3 4 5 6 a.< #.8 * { ~ = ) b.c.  r 9 9 % ] * 8 h : ,.g : h ",
"r . + @ # $ % & * % 9 r r d.e.'.q c & ~ { ] & % ^ / ( _ : < #.$.N =.V f.%.g.3 a.| [ * d { ~ c q b.h.  r 9 9 % % * 8 h i.3.U i.j.",
"  . + @ # $ % & * % 9 r r d.e.@.O c & ~ { ] & % ^ / ( _ : < #.$.N =.V k.%.g.3 a.N [ * d { ~ c q b.h.  r 9 9 % % * 8 h l.f U i.j.",
"  . + @ # $ % & * ] 9 r r m.u @.O c & ~ { ] & % ^ / ( _ : < #.$.N 7 2 k.%.g.3 a.N #.d d { ;.c q a R   r 9 9 % ] * 8 n.l.f U i.j.",
"  o.+ @ Z ` ] % d ] c   r m.u @.O ! % ;.{ ~ & % p.q.( _ 0.r.s.t.D 7 2 k.%.L f.u.N #.d d & ;.c q a R - r c 9 % ] * * n.l.f v.l.w.",
"- o.X Y Z ` ] % d ] c     m.u ' = ! % ;.& ~ % ] p.q.9.x.0.r.s.t.D 7 2 y.z.L f.u.D #.d y & ;.! O a R -   c c ] ] d * n.A.,.v.l.w.",
"- o.X Y Z ` ] % d ~ c     B.+.' = ! % ;.& ~ % ] p.q.9.x.0.r.s.t.D a.2 y.z.L f.u.D s.y y & C.! O >.c.-   c c ] ~ d * n.A.,.v.l.w.",
"- t X Y Z D.] ] y ~ !     B.+.' = n ] C.& ;.% ] E.F.9.x.0.G.s.H.[.a.h y.z.&.k.I.D s.y y % C.! O >.c.5.  ! c ] ~ d d j.A.,.4.A.J.",
"- t X Y K.D.~ ] y ~ ! -   B.+.' = n ] C.& ;.% ] E.F.9.x.L.G.M.s.[.a.N.O.z.&.k.I.D s.y y % C.! O >.c.5.  ! ! ] ~ y ] j.A.,.4.A.J.",
"5...P.Q.R.` % ] y ] ! - - B.+.' O ! ] C.% ;.] ~ E.F.S.T.J U.[.s.D 7 N.O.%.V.W.n.a.[.* !.] ;.c = X.R 5.- ! ! ~ ;.y ] N.y.Y.Z.`.h ",
"5...P.Q.R.D.% ] y ] ! - - B.+.' = ! ] C.% ;.] ~ E.F. +T.J U.[.s.7 V N.O..+V.W.n.a.[.d !.] ;.c 9 X.R 5.- ! ! ~ ;.y ] N.O.Y.Z.`.h ",
"5...k ++R.D.] ] !.] n - - B.+.' = ! ~ @+% C.] ~ #+$+ +T.J U.[.s.a.V N.O.%+V.W.n.a.< d ^ ] ;.c 9 X.R &+- n ! ~ ;.y ~ *+=+Y.Z.`.n.",
"&+..k ++-+D.] ~ !.] n 5.- s +.' = ! ~ @+] C.~ ;.#+$+ +T.J ;+< s.a.2 N.O.%+>+,+n.u.< d ^ ~ ;.! 9 '+R &+- n n ;.;.!.~ *+=+Y.)+`.n.",
"&+> k ++-+D.] ~ !.~ n 5.5.s , 8.= n ~ @+] C.~ ;.#+$+!+~+6 ;+< M.a.2 *+=+%+>+,+j.u.< y ^ ~ C.! 9 '+c.&+5.n n ;.C.!.~ *+=+{+)+]+n.",
"&+> + ^+-+/+] ~ ^ ~ $ 5.5.s , 8.9 n ;.(+] @+~ ;._+:+!+~+6 ;+< M.u.2 *+=+<+>+,+j.u.r.y p.~ C.! c '+c.[+5.$ n ;.C.!.;.}+|+{+)+]+j.",
"[+> + ^+1+/+~ ;.^ ~ $ &+5.s , 8.9 n ;.(+~ @+;.C._+:+!+~+6 2+r.M.u.h *+=+<+>+O.j.u.r.y p.~ C.n c 3+c.[+5.$ $ C.C.^ ;.}+|+{+4+]+j.",
"[+6.+ ^+1+/+~ ;.^ ~ $ &+5./., 8.9 n ;.(+~ @+;.C._+:+!+~+6 2+r.5+u.h *+=+<+6+O.j.I.r.y p.;.C.n c 3+c.[+&+$ $ C.C.^ ;.}+|+{+4+7+j.",
"[+6.k ^+1+8+;.C.p.;.` 5.5. ., @.= D.;.(+] @+~ ;._+:+!+~+9+2+r.5+I.n.*+=+<+>+,+j.u.r.!.p.~ C.$ ! '+h.[+5.$ $ ;.C.^ ;.}+=+{+)+]+j.",
"[+6.k ^+1+8+;.C.p.;.` 5.5. ., @.= D.;.(+~ @+;.C._+:+!+0+9+2+r.a+I.n.*+=+<+>+O.j.u.r.!.p.~ C.$ ! '+h.[+5.$ $ C.C.^ ;.}+|+{+)+]+j.",
"b+6.+ ^+1+c+C.C.p.;.` 5.5. .7.@.= D.;.(+~ @+;.C._+:+!+0+9+d+G.a+U.n.*+|+<+6+O.w.I.r.!.p.~ @+$ ! '+h.[+&+$ $ C.C.^ ;.}+|+{+)+]+j.",
"b+e++ ^+w c+C.@+E.C.D.5.5. .7.@.= /+;.(+~ @+;.C.f+:+g+0+9+d+G.a+U.j.}+|+h+6+O.w.I.r.^ E.;.@+$ n '+h.b+&+$ $ C.@+^ ;.}+|+{+)+]+w.",
"b+e++ i+w c+C.@+E.C.D.&+&+; 7.' 9 /+C.j+~ (+C.C.f+k+g+0+3 d+G.a+U.j.}+|+h+6+O.w.I.G.^ E.;.@+` n 3+R b+&+` ` C.@+p.C.l+|+m+4+7+w.",
"n+e+X i+w o+@+@+E.C.D.&+&+; p+' 9 /+C.j+;.(+C.@+f+k+g+q+3 r+s+t+;+j.}+u+h+v+=+J.U.G.^ E.;.(+` n 3+R b+[+` ` @+@+p.C.l+u+m+4+7+w.",
"n+d.X i+).o+@+(+#+@+D.&+&+; p+' 9 8+C.j+;.(+C.@+f+k+w+q+3 r+s+t+;+w.l+u+h+v+=+J.U.G.p.#+C.(+` n 3+R b+[+` ` @+(+p.C.l+u+m+4+7+J.",
"n+d.X i+).o+@+(+#+@+/+&+&+; p+' 9 8+C.x+;.(+C.@+y+1+w+q+3 r+s+t+;+w.l+u+z+v+=+J.U.G.p.#+C.(+` $ A+c.n+[+` ` @+(+p.C.l+u+m+4+7+J.",
"n+d.+ i+w o+@+(+#+@+/+/+/+c p+8.c 8+D.c+` 8+D./+B+w  +0+f.C+s+t+;+w.D+u+h+6+|+E+;+s+p.#+@+j+D.$ 3+R n+b+D.D.(+(+E.@+E+F+m+4+G+D+",
"n+d.+ i+w o+@+(+#+p./+/+/+c H+8.c 8+D.c+` 8+D./+B+6. +0+f.C+s+t+;+J.D+I+h+6+|+E+;+s+p._+@+j+D.$ 3+R n+b+D.D.(+(+E.@+E+J+m+4+G+D+",
"n+d.+ i+).o+@+(+#+E./+/+/+c H+8.c c+D.c+` 8+D./+B+6.!+q+f.C+s+t+;+J.D+I+h+v+|+K+;+s+E._+@+x+/+$ A+R n+b+D.D.(+j+E.@+E+J+m+L+G+M+",
"n+d.X i+).o+(+j+_+E.8+8+8+c H+8.! c+/+o+` c+D./+N+e+!+q+k.C+O+t+;+J.M+I+h+v+|+K+2+s+E._+(+x+/+` A+R P+b+/+D.(+j+E.(+K+J+m+L+G+M+",
"P+m.X Q+).B+(+j+_+E.8+8+8+! H+R+! c+/+o+D.c+/+8+N+e+!+q+k.S+O+T+2+J.M+I+z+v+u+K+2+O+E.f+(+x+/+` A+c.P+n+/+/+j+j+#+(+K+J+U+L+F+M+",
"P+m.X Q+P B+(+j+_+#+8+8+8+! V+R+! o+/+o+D.c+/+8+N+e+g+W+k.S+O+T+2+E+M+X+z+Y+u+Z+2+O+#+f+(+`+8+`  @c.P+n+/+/+j+x+#+(+K+.@U++@F+@@",
"P+m.#@Q+P B+(+j+f+#+c+8+c+! V+R+n o+8+B+D.o+/+8+$@d.g+W+y.S+%@T+2+E+M+X+z+Y+u+Z+d+O+#+f+j+`+8+D. @c.&@n+8+/+j+x+#+j+K+.@U++@F+@@",
"P+m.#@Q+P B+j+x+f+#+c+c+c+n V+*@n o+8+B+D.o+/+8+$@d.g+W+y.=@%@T+2+E+@@X+-@Y+u+Z+d+O+#+f+j+`+8+D. @c.&@n+8+8+j+x+_+j+Z+.@;@+@F+@@",
"&@B.X Q+P N+x+`+>@#+c+c+o+! H+8.! B+8+B+/+o+8+c+$@d.!+W+y.,@'@)@d+K+@@X+z+v+|+K+d+%@#+>@j+`+8+` A+c.&@P+8+8+x+`+_+j+Z+.@U+L+G+M+",
"&@B.X Q+P N+x+`+>@_+c+o+o+! H+8.! B+8+B+/+o+8+c+$@d.!+W+y.,@'@!@d+K+@@X+z+v+u+Z+d+%@_+>@j+`+8+` A+c.&@P+8+8+x+`+_+j+Z+.@U+L+F+@@",
"&@B.X Q+) $@x+`+>@_+c+o+o+n H+8.! B+c+N+/+B+8+c+~@m.g+W+y.,@'@!@r+K+@@{@z+Y+u+Z+d+%@_+>@j+`+8+` A+c.]@P+c+8+x+`+_+x+Z+^@U++@F+@@",
"]@B.#@/@) $@`+`+>@_+o+o+o+n H+8.n B+c+N+8+B+c+o+~@m.g+W+(@,@_@!@r+K+:@{@-@Y+u+Z+r+'@_+>@j+y+8+D. @c.]@P+c+c+`+`+f+x+<@^@;@+@F+@@",
"]@s #@/@) $@`+y+[@_+o+o+B+n V+R+n N+c+N+8+B+c+o+~@m.g+}@(@|@_@1@r+Z+:@{@-@Y+u+<@r+'@_+[@x+y+c+D. @b ]@&@c+c+`+y+f+x+<@^@;@+@F+:@",
"]@s #@/@0 ~@`+y+[@f+o+B+B+$ V+R+n N+o+$@8+N+c+o+2@B.w+}@(@|@_@1@C+Z+:@3@-@4@I+<@r+'@f+[@x+y+c+D. @b 5@&@o+c+`+y+f+`+<@6@;@7@J+:@",
"5@s 8@9@0 ~@`+y+[@f+B+B+B+$ V+R+$ N+o+$@c+N+o+B+2@B.w+}@G+|@0@1@C+Z+a@3@b@4@I+<@r+'@f+[@x+c@c+/+d@b 5@&@o+o+y+y+>@`+e@6@f@7@J+:@",
"5@/.8@9@0 ~@B+y+c@`+B+B+B+$ V+R+$ N+o+$@c+N+o+B+2@B.w+}@G+g@S+'@C+Z+a@3@h@4@I+<@C+C+f+[@`+c@c+/+d@b 5@]@P+o+B+y+y+`+e@6@f@7@J+:@",
"a@.@i@j@G+k@M+<@e@Z+@@:@:@*+l@m@N.a@M+k@D+:@M+@@n@F+o@p@J+k@K+q@J.a@k@6@r@s@.@k@<@<@S+=@K+<@@@t@u@v@w@:@M+K+Z+S+C+r+q@6@;@+@.@k@",
"a@.@i@j@F+k@@@:@a@@@@@:@:@*+l@m@N.a@@@k@D+a@M+@@n@J+o@p@.@k@@@k@t@a@k@6@;@+@.@k@:@<@<@=@K+e@@@t@u@v@w@x@@@M+Z+<@C+C+k@6@;@+@.@k@",
"k@.@i@j@F+k@@@:@a@@@:@:@:@*+l@m@*+a@@@k@M+a@@@:@n@J+y@z@.@k@@@k@D+k@k@6@;@+@.@k@a@<@<@=@K+e@@@D+u@v@w@x@@@@@<@<@S+C+k@6@;@+@.@k@",
"k@^@i@A@F+k@@@:@a@@@:@:@a@*+l@B@*+k@@@k@M+a@@@:@n@J+y@z@.@k@@@k@D+k@C@D@;@7@.@C@a@<@<@,@K+e@:@D+u@v@w@E@@@@@<@<@S+C+C@D@;@7@.@C@",
"k@^@F@A@F+C@:@a@k@:@:@a@a@}+G@B@*+k@@@C@M+k@@@:@H@J+y@z@.@C@@@C@D+k@C@D@f@7@^@C@a@e@e@,@Z+e@:@D+I@J@K@E@:@@@<@e@S+S+C@D@f@7@^@C@",
"C@^@F@A@J+C@:@a@k@:@a@a@a@}+G@B@}+k@:@C@@@k@:@a@H@.@L@M@^@C@:@C@M+C@C@D@f@7@^@C@a@e@e@,@Z+q@:@M+I@J@K@E@:@:@e@e@=@S+C@D@f@7@^@C@",
"C@6@F@A@J+C@:@a@k@:@a@a@a@}+G@B@}+k@:@C@@@k@:@a@H@.@L@M@^@C@:@C@M+C@n@N@f@O@^@C@k@e@e@|@Z+q@a@M+I@J@K@w@:@:@e@e@=@S+n@N@f@O@^@C@",
"C@6@F@P@J+C@:@a@k@:@a@a@k@}+Q@R@}+C@:@C@@@k@:@a@H@.@L@M@^@C@:@C@M+C@n@N@f@O@6@n@k@e@e@|@Z+q@a@M+I@J@K@w@:@:@e@e@=@S+n@N@f@O@6@n@",
"C@6@i@P@^@H@a@a@k@a@a@k@k@}+l@m@*+C@a@n@@@C@:@a@S@^@L@M@6@n@a@n@M+C@n@D@f@O@^@C@k@e@<@,@Z+g@a@M+I@v@T@w@a@a@e@q@,@=@n@D@f@O@^@C@",
"n@6@F@P@^@H@a@a@C@a@a@k@C@}+l@m@*+C@a@n@:@C@a@k@S@^@L@M@6@H@a@n@M+C@n@N@f@O@^@n@k@e@e@,@<@g@a@M+I@J@T@w@a@a@q@q@,@=@n@N@f@O@^@n@",
"n@D@F@P@^@S@a@a@C@a@k@C@C@l+l@m@}+n@a@n@:@C@a@k@S@^@L@U@6@H@k@H@@@C@n@N@f@O@6@n@k@e@e@|@<@g@k@M+I@J@T@K@a@a@q@q@,@=@n@N@f@O@6@n@",
"n@D@F@V@6@S@a@k@C@k@k@C@C@l+G@m@}+n@a@n@:@C@a@k@W@^@X@U@D@H@k@H@@@n@n@N@Y@O@6@n@k@q@e@|@<@g@k@@@Z@J@`@K@a@a@q@g@,@=@n@N@Y@O@6@n@",
"H@D@o@V@6@S@k@k@C@k@k@C@n@l+G@B@}+n@k@H@:@n@k@k@W@6@X@U@D@H@k@H@@@n@H@N@Y@ #6@n@C@q@e@|@<@.#k@@@Z@J@`@K@k@k@q@g@|@,@H@N@Y@ #6@n@",
"H@N@o@V@6@W@k@k@n@k@C@n@n@t@G@B@l+H@k@H@a@n@k@C@W@6@X@+#D@S@C@S@@@n@H@@#Y@ #D@H@C@q@q@##e@.#C@@@Z@$#`@T@k@k@g@g@|@,@H@@#Y@ #D@H@",
"H@N@o@%#D@W@k@C@n@C@C@n@n@t@Q@B@l+H@k@H@a@n@k@C@W@6@B +#N@S@C@S@:@n@H@@#&# #D@H@C@g@q@##e@.#C@:@*#$#`@T@k@k@g@.#|@,@H@@#&# #D@H@",
"H@N@o@%#D@W@C@C@n@C@C@n@n@t@Q@B@l+H@k@S@a@n@k@C@=#6@B +#N@S@C@S@:@H@H@@#&# #D@H@C@g@q@##e@.#C@:@-#;#>#n@k@k@g@.#|@q@,#@#&# #D@H@",
"'#$ )#!#n ~#~@'#N+~@{#~#~@! ]#^#/+/#(#(#$@'#{#~@(#c _#:#D.~#(#~@{#$@(#= <#[#N+}#{#B+|#o+{#(#'#D.1#2#3#~#2@2@{#{#{#2@{#` 4#5#c+6#",
"~#! 7#!#n {#N+(#2@|#B+|#~#~@8#'.n (#{#{#N+~#2@$@~#9 _#:#` 2@~@N+}#|#|#n 9#0#c o+(#'#~#B+(#(#/#N+a#R+2@$@N+B+N+$@N+N+'#8+b#5#O ~@"};
