/* XPM */
static char * door_5_xpm[] = {
"64 64 179 2",
"  	c None",
". 	c #ACBECC",
"+ 	c #BCCEDC",
"@ 	c #5B6D7B",
"# 	c #516371",
"$ 	c #BDD0DE",
"% 	c #AABDCB",
"& 	c #ABC1CE",
"* 	c #ACC2CF",
"= 	c #AAC2CE",
"- 	c #AFC2D0",
"; 	c #ABBDCB",
"> 	c #AFC1CF",
", 	c #B8CAD8",
"' 	c #8497A5",
") 	c #273A48",
"! 	c #B3C6D4",
"~ 	c #ACBFCD",
"{ 	c #A9BFCC",
"] 	c #ADC3D0",
"^ 	c #AAC0CD",
"/ 	c #AEC0CE",
"( 	c #BED0DE",
"_ 	c #5C6E7C",
": 	c #526472",
"< 	c #BED1DF",
"[ 	c #ABBECC",
"} 	c #AEC4D1",
"| 	c #ACC4D0",
"1 	c #B1C4D2",
"2 	c #ADBFCD",
"3 	c #B2C4D2",
"4 	c #BACCDA",
"5 	c #8699A7",
"6 	c #2A3D4B",
"7 	c #B6C9D7",
"8 	c #AFC5D2",
"9 	c #BDCFDD",
"0 	c #5A6C7A",
"a 	c #506270",
"b 	c #BCCFDD",
"c 	c #A9BCCA",
"d 	c #B0C3D1",
"e 	c #B0C2D0",
"f 	c #B9CBD9",
"g 	c #8598A6",
"h 	c #283B49",
"i 	c #B4C7D5",
"j 	c #AEC1CF",
"k 	c #293C4A",
"l 	c #B5C8D6",
"m 	c #BFD1DF",
"n 	c #536573",
"o 	c #BFD2E0",
"p 	c #B1C3D1",
"q 	c #B0C6D3",
"r 	c #ABC3CF",
"s 	c #AABCCA",
"t 	c #B7C9D7",
"u 	c #8396A4",
"v 	c #263947",
"w 	c #B5C7D5",
"x 	c #879AA8",
"y 	c #ADC0CE",
"z 	c #B4C6D4",
"A 	c #BBCDDB",
"B 	c #A9C1CD",
"C 	c #A8BECB",
"D 	c #B3C5D3",
"E 	c #A8BBC9",
"F 	c #A8C0CC",
"G 	c #A7BDCA",
"H 	c #BBCEDC",
"I 	c #5D6F7D",
"J 	c #4F616F",
"K 	c #B9CCDA",
"L 	c #4E606E",
"M 	c #A7BFCB",
"N 	c #A6BCC9",
"O 	c #A9BBC9",
"P 	c #B8CBD9",
"Q 	c #4D5F6D",
"R 	c #A7BAC8",
"S 	c #A6BECA",
"T 	c #A5BBC8",
"U 	c #A8BAC8",
"V 	c #B7CAD8",
"W 	c #A6B9C7",
"X 	c #A5BDC9",
"Y 	c #A7B9C7",
"Z 	c #A5B8C6",
"` 	c #B6C8D6",
" .	c #A4BCC8",
"..	c #4C5E6C",
"+.	c #A4BAC7",
"@.	c #A6B8C6",
"#.	c #A4B7C5",
"$.	c #8295A3",
"%.	c #A3BBC7",
"&.	c #A3B9C6",
"*.	c #8194A2",
"=.	c #A2BAC6",
"-.	c #A5B7C5",
";.	c #4B5D6B",
">.	c #A3B6C4",
",.	c #253846",
"'.	c #8093A1",
").	c #596B79",
"!.	c #A1B9C5",
"~.	c #243745",
"{.	c #A4B6C4",
"].	c #A2B5C3",
"^.	c #A2B8C5",
"/.	c #A0B8C4",
"(.	c #A1B4C2",
"_.	c #A3B5C3",
":.	c #4A5C6A",
"<.	c #A1B7C4",
"[.	c #9FB7C3",
"}.	c #B2C5D3",
"|.	c #A0B3C1",
"1.	c #A2B4C2",
"2.	c #586A78",
"3.	c #495B69",
"4.	c #A0B6C3",
"5.	c #A2B4C0",
"6.	c #B1C3CF",
"7.	c #596B77",
"8.	c #4A5C68",
"9.	c #B4C6D2",
"0.	c #A1B3BF",
"a.	c #A5B7C3",
"b.	c #A2B6C1",
"c.	c #A1B5C0",
"d.	c #A3B7C2",
"e.	c #A4B6C2",
"f.	c #A3B5C1",
"g.	c #AABCC8",
"h.	c #80929E",
"i.	c #253743",
"j.	c #ABBDC9",
"k.	c #A6B8C4",
"l.	c #B3C5D1",
"m.	c #B0C2CE",
"n.	c #495B67",
"o.	c #243642",
"p.	c #586A76",
"q.	c #A0B2BE",
"r.	c #A9BBC7",
"s.	c #7F919D",
"t.	c #B2C4D0",
"u.	c #AFC1CD",
"v.	c #485A66",
"w.	c #7E909C",
"x.	c #233541",
"y.	c #9EB0BC",
"z.	c #9FB1BD",
"A.	c #AEC0CC",
"B.	c #9DAFBB",
"C.	c #A8BAC6",
"D.	c #475965",
"E.	c #576975",
"F.	c #ADBFCB",
"G.	c #9CAEBA",
"H.	c #A7B9C5",
"I.	c #465864",
"J.	c #9BAEBC",
"K.	c #556876",
"L.	c #4A5D6B",
"M.	c #9DB0BE",
"N.	c #9EB1BF",
"O.	c #7C8F9D",
"P.	c #192C3A",
"Q.	c #97AAB8",
"R.	c #9CAFBD",
"S.	c #566977",
"T.	c #9FB2C0",
"U.	c #99ACBA",
"V.	c #798C9A",
"                                                                                    . + @ # $ % & * = & - ; > , ' ) ! ~ * { ] ^ ",
"                                                                                    / ( _ : < [ ] } | ] 1 2 3 4 5 6 7 - } & 8 * ",
"                                                                                    2 9 0 a b c ^ & = & d . e f g h i j ] { } ^ ",
"                                                                                    / 9 0 a b c & * = & d . e f g k l j ] ^ } & ",
"                                                                                    > m _ n o ~ ] } | ] 1 2 p 4 5 k l - 8 * q ] ",
"                                                                                    2 9 @ # $ [ * ] r * j s / t u v ! ~ ] { } & ",
"                                                                                    2 + @ # $ % & * = & j 2 2 w x k 1 y * { ] ^ ",
"                                                                                    . + @ # $ % & * = & j 2 2 w x h d y * { ] ^ ",
"                                                                                    . + @ # $ % & * = ^ j 2 2 z 5 h d y * { ] ^ ",
"                                                                                    . A @ # b c ^ & B ^ y . 2 z 5 h d ~ & C ] { ",
"                                                                                    ; A 0 a b c ^ & B ^ y . . z 5 ) - ~ & C * { ",
"                                                                                    ; A 0 a b c ^ & B { y . . D g ) - ~ & C * { ",
"                                                                                    ; 4 0 a b E ^ ^ F { ~ . . D g ) - [ ^ G * C ",
"                                                                                    ; 4 0 a H E { ^ F { ~ ; . D g ) - [ ^ G * C ",
"                                                                                    s f I J K c & ^ F ^ ~ ; ; D g ) d ~ ^ G & C ",
"                                                                                    s f I J K E & ^ F ^ ~ ; ; D g ) - ~ ^ G & C ",
"                                                                                    s f _ L K E ^ ^ M ^ [ ; ; D g ) - ~ { N & G ",
"                                                                                    O f _ L P E ^ { M ^ [ s ; 3 g ) - ~ { N ^ G ",
"                                                                                    O , _ L P E ^ { M { [ s s 3 ' v - [ { N ^ G ",
"                                                                                    O , @ Q P R ^ { S { % s s 3 ' v j [ C T ^ N ",
"                                                                                    U , @ Q V R { C S { % O s 3 ' v j [ C T { N ",
"                                                                                    U t @ Q V R { C S { % O s p ' v j [ C T { N ",
"                                                                                    U t _ Q V W C G X C c s s e ' h - E C T ^ N ",
"                                                                                    U t _ Q V W C G X C c s s e ' h - E C T { N ",
"                                                                                    Y t @ Q V Z G G X C c s s e u h - E C T { N ",
"                                                                                    Y ` @ Q 7 Z G N  .G E s s e u h - R C T { N ",
"                                                                                    Y ` @ ..7 Z G N  .G E O O > u ) j R G +.{ T ",
"                                                                                    @.` 0 ..7 #.N N  .G E O O > $.) j R G +.C T ",
"                                                                                    @.w 0 ..l #.N T %.N E O O > $.) j W G +.C T ",
"                                                                                    @.w 0 ..l #.N T %.N R O O > $.) j W G &.C T ",
"                                                                                    @.w @ ..7 #.N T %.N R R R y $.v y W E Z c W ",
"                                                                                    @.w @ ..7 #.N T %.X R R R y *.v y W E Z c W ",
"                                                                                    @.w @ ..l #.N T %. .R R R y *.v y Z E Z c W ",
"                                                                                    @.w 0 ..l #.T +.=. .W W W y *.v ~ Z R #.c Z ",
"                                                                                    -.z 0 ;.l >.T +.=. .W W W ~ *.,.~ Z R #.E Z ",
"                                                                                    -.z 0 ;.i >.T +.=.%.W W W ~ '.,.~ #.R #.E Z ",
"                                                                                    -.z ).;.i >.T +.!.%.Z W Z ~ '.,.[ #.W >.E #.",
"                                                                                    -.z ).;.i >.+.&.!.%.Z Z Z [ '.~.[ #.W >.E #.",
"                                                                                    {.D 0 ;.i ].&.^./.%.Z Z #.~ *.v ~ >.W >.R #.",
"                                                                                    {.D 0 ;.i ].&.^./.=.Z #.#.~ *.v ~ >.W >.R #.",
"                                                                                    {.D 0 ;.! (.&.^./.=.Z #.#.[ *.v ~ >.Z ].R >.",
"                                                                                    _.D ).:.! (.^.^./.=.#.#.#.[ *.v [ >.Z ].W >.",
"                                                                                    _.3 ).:.! (.^.<.[.=.#.#.>.[ '.,.[ ].Z ].W >.",
"                                                                                    _.3 ).:.}.|.^.<.[.!.#.>.>.% '.,.[ ].#.(.W ].",
"                                                                                    1.3 2.3.}.|.^.<.[.!.>.>.>.% '.,.% ].#.(.Z ].",
"                                                                                    1.p 2.3.}.|.>.<.4.^.>.>.>.% '.,.% ].#.(.Z ].",
"                                                                                    5.6.7.8.9.0.a.b.c.d.e.f.f.g.h.i.j.5.a.0.k.f.",
"                                                                                    5.6.7.8.l.0.e.f.5.e.e.f.f.g.h.i.j.5.e.0.k.5.",
"                                                                                    0.6.7.8.l.0.e.f.5.e.f.f.f.g.h.i.g.5.e.0.a.5.",
"                                                                                    0.m.7.n.l.0.e.f.5.e.f.f.5.g.h.o.g.0.e.0.a.5.",
"                                                                                    0.m.p.n.l.q.f.5.0.f.f.5.5.r.s.o.g.0.e.q.a.0.",
"                                                                                    q.m.p.n.t.q.f.5.0.f.5.5.5.r.s.o.r.0.f.q.e.0.",
"                                                                                    q.u.p.n.t.q.f.5.0.f.5.5.5.r.s.o.r.0.f.q.e.0.",
"                                                                                    q.u.p.v.t.q.f.5.0.f.5.5.0.r.w.x.r.q.f.q.e.0.",
"                                                                                    q.u.7.v.m.y.5.5.0.5.5.0.0.r.h.i.g.q.5.z.e.q.",
"                                                                                    z.u.p.v.m.y.5.5.q.5.5.0.q.r.h.i.g.q.5.z.f.q.",
"                                                                                    z.A.p.v.m.B.5.5.q.5.0.q.q.C.h.i.r.z.5.z.f.q.",
"                                                                                    z.A.p.D.u.B.5.0.q.0.0.q.q.C.s.i.r.z.5.z.f.q.",
"                                                                                    y.A.E.D.u.B.0.0.q.0.0.q.z.C.s.o.r.z.0.y.f.z.",
"                                                                                    y.F.E.D.u.G.0.0.z.0.q.z.z.H.s.o.C.y.0.y.5.z.",
"                                                                                    y.F.E.I.A.G.0.q.z.q.q.z.z.H.w.o.C.y.0.y.5.z.",
"                                                                                    y.F.E.I.A.G.q.q.z.q.q.z.z.H.w.o.C.y.0.B.5.z.",
"                                                                                    J.% K.L.[ M.|.J.].|.N.M.|.~ O.P.R Q.R.R.(.J.",
"                                                                                    M.~ S.L.[ N.].R.T.U.>.U.M.|.V.k [ R.N.N.].M."};
