/* XPM */
static char * door_3_xpm[] = {
"64 64 346 2",
"  	c None",
". 	c #ACBECC",
"+ 	c #BCCEDC",
"@ 	c #5B6D7B",
"# 	c #516371",
"$ 	c #BDD0DE",
"% 	c #AABDCB",
"& 	c #ABC1CE",
"* 	c #ACC2CF",
"= 	c #AAC2CE",
"- 	c #AFC2D0",
"; 	c #ABBDCB",
"> 	c #AFC1CF",
", 	c #B8CAD8",
"' 	c #8497A5",
") 	c #273A48",
"! 	c #B3C6D4",
"~ 	c #ACBFCD",
"{ 	c #A9BFCC",
"] 	c #ADC3D0",
"^ 	c #AAC0CD",
"/ 	c #A6BECA",
"( 	c #BAD0DD",
"_ 	c #5B6D79",
": 	c #51636F",
"< 	c #BDD1DC",
"[ 	c #A7BFC9",
"} 	c #A9C4CD",
"| 	c #A9C6CE",
"1 	c #ABC3CD",
"2 	c #ACC2CD",
"3 	c #ABBFCA",
"4 	c #B9CBD7",
"5 	c #72808D",
"6 	c #3A4A57",
"7 	c #BBCDD9",
"8 	c #AAC0CB",
"9 	c #ABC3CF",
"0 	c #AEC0CE",
"a 	c #BED0DE",
"b 	c #5C6E7C",
"c 	c #526472",
"d 	c #BED1DF",
"e 	c #ABBECC",
"f 	c #AEC4D1",
"g 	c #ACC4D0",
"h 	c #B1C4D2",
"i 	c #ADBFCD",
"j 	c #B2C4D2",
"k 	c #BACCDA",
"l 	c #8699A7",
"m 	c #2A3D4B",
"n 	c #B6C9D7",
"o 	c #AFC5D2",
"p 	c #A8C0CC",
"q 	c #BCD2DF",
"r 	c #5D6F7B",
"s 	c #536571",
"t 	c #BFD3DE",
"u 	c #A9C1CB",
"v 	c #ABC6CF",
"w 	c #ABC8D0",
"x 	c #ADC5CF",
"y 	c #AEC4CF",
"z 	c #ADC1CC",
"A 	c #BCCEDA",
"B 	c #758390",
"C 	c #3D4D5A",
"D 	c #BED0DC",
"E 	c #AAC2CC",
"F 	c #BDCFDD",
"G 	c #5A6C7A",
"H 	c #506270",
"I 	c #BCCFDD",
"J 	c #A9BCCA",
"K 	c #B0C3D1",
"L 	c #B0C2D0",
"M 	c #B9CBD9",
"N 	c #8598A6",
"O 	c #283B49",
"P 	c #B4C7D5",
"Q 	c #AEC1CF",
"R 	c #A8C3CC",
"S 	c #A8C5CD",
"T 	c #ACC0CB",
"U 	c #74828F",
"V 	c #3C4C59",
"W 	c #BDCFDB",
"X 	c #ABC1CC",
"Y 	c #AAC5CE",
"Z 	c #A9C1CD",
"` 	c #293C4A",
" .	c #B5C8D6",
"..	c #A7BFCB",
"+.	c #BBD1DE",
"@.	c #BFD1DF",
"#.	c #536573",
"$.	c #BFD2E0",
"%.	c #B1C3D1",
"&.	c #B0C6D3",
"*.	c #BDD3E0",
"=.	c #5C6E7A",
"-.	c #526470",
";.	c #BED2DD",
">.	c #A8C0CA",
",.	c #AAC7CF",
"'.	c #ACC4CE",
").	c #ADC3CE",
"!.	c #AABCCA",
"~.	c #B7C9D7",
"{.	c #8396A4",
"].	c #263947",
"^.	c #5A6C78",
"/.	c #BCD0DB",
"(.	c #AABEC9",
"_.	c #A9BFCA",
":.	c #B5C7D5",
"<.	c #879AA8",
"[.	c #ADC0CE",
"}.	c #B8CAD6",
"|.	c #3E4E5B",
"1.	c #B7C9D5",
"2.	c #B4C6D4",
"3.	c #BBCDDB",
"4.	c #A8BECB",
"5.	c #A5BDC9",
"6.	c #B9CFDC",
"7.	c #A6BEC8",
"8.	c #A7C2CB",
"9.	c #A7C4CC",
"0.	c #A8BEC9",
"a.	c #50626E",
"b.	c #B6C8D4",
"c.	c #73818E",
"d.	c #B3C5D3",
"e.	c #A8BBC9",
"f.	c #A7BDCA",
"g.	c #A4BCC8",
"h.	c #B8CEDB",
"i.	c #A5BDC7",
"j.	c #A6C3CB",
"k.	c #A7BDC8",
"l.	c #BBCEDC",
"m.	c #BBCFDA",
"n.	c #A6C1CA",
"o.	c #ABBDC9",
"p.	c #B7C7D4",
"q.	c #5D6F7D",
"r.	c #4F616F",
"s.	c #B9CCDA",
"t.	c #5C6C79",
"u.	c #51616E",
"v.	c #A6BCC7",
"w.	c #3F4D5A",
"x.	c #B9C9D6",
"y.	c #A9BDC8",
"z.	c #5B6B78",
"A.	c #75818F",
"B.	c #4E606E",
"C.	c #A6BCC9",
"D.	c #A3BBC7",
"E.	c #B7CDDA",
"F.	c #74808E",
"G.	c #A9BBC9",
"H.	c #B8CBD9",
"I.	c #A5BBC6",
"J.	c #3E4C59",
"K.	c #B8C8D5",
"L.	c #5A6A77",
"M.	c #50606D",
"N.	c #AABCC8",
"O.	c #B6C6D3",
"P.	c #A8BCC7",
"Q.	c #4D5F6D",
"R.	c #A7BAC8",
"S.	c #A5BBC8",
"T.	c #A2BAC6",
"U.	c #B6CCD9",
"V.	c #737F8D",
"W.	c #A8BAC8",
"X.	c #B7CAD8",
"Y.	c #A4BAC5",
"Z.	c #A5C0C9",
"`.	c #3D4B58",
" +	c #A6B9C7",
".+	c #BACCD8",
"++	c #4F5F6C",
"@+	c #A4BFC8",
"#+	c #A7B9C7",
"$+	c #A5B8C6",
"%+	c #A3B9C4",
"&+	c #B5C5D2",
"*+	c #A7BBC6",
"=+	c #B6C8D6",
"-+	c #A1B9C5",
";+	c #596976",
">+	c #A9BBC7",
",+	c #727E8C",
"'+	c #4C5E6C",
")+	c #A4BAC7",
"!+	c #B5CBD8",
"~+	c #A6B8C6",
"{+	c #A4B7C5",
"]+	c #8295A3",
"^+	c #4E5E6B",
"/+	c #A2B8C3",
"(+	c #A4BCC6",
"_+	c #A3BEC7",
":+	c #B4C4D1",
"<+	c #3C4A57",
"[+	c #A6BAC5",
"}+	c #586875",
"|+	c #A8BAC6",
"1+	c #A3B9C6",
"2+	c #A1B7C4",
"3+	c #717D8B",
"4+	c #A3B6C4",
"5+	c #A1B7C2",
"6+	c #A6B8C4",
"7+	c #A5B9C4",
"8+	c #8194A2",
"9+	c #B3C3D0",
"0+	c #A4B8C3",
"a+	c #A2B5C3",
"b+	c #A3BBC5",
"c+	c #A5B7C3",
"d+	c #A5B7C5",
"e+	c #4B5D6B",
"f+	c #253846",
"g+	c #A0B6C1",
"h+	c #A2BDC6",
"i+	c #8093A1",
"j+	c #4D5D6A",
"k+	c #B2C2CF",
"l+	c #3B4956",
"m+	c #A3B7C2",
"n+	c #596B79",
"o+	c #A1B4C2",
"p+	c #A2BAC4",
"q+	c #243745",
"r+	c #9FB5C0",
"s+	c #A4B6C2",
"t+	c #707C8A",
"u+	c #A4B6C4",
"v+	c #A2B8C5",
"w+	c #A0B8C4",
"x+	c #9EB4BF",
"y+	c #A1B9C3",
"z+	c #A1BCC5",
"A+	c #A0BBC4",
"B+	c #A0B3C1",
"C+	c #B1C1CE",
"D+	c #A3B5C3",
"E+	c #4A5C6A",
"F+	c #B5C7D3",
"G+	c #A0B8C2",
"H+	c #A3B5C1",
"I+	c #9FB7C3",
"J+	c #4C5C69",
"K+	c #9DB3BE",
"L+	c #9FBAC3",
"M+	c #A2B6C1",
"N+	c #B2C5D3",
"O+	c #9FB2C0",
"P+	c #B0C0CD",
"Q+	c #3A4855",
"R+	c #A2B4C2",
"S+	c #586A78",
"T+	c #495B69",
"U+	c #B4C6D2",
"V+	c #9FB7C1",
"W+	c #A2B4C0",
"X+	c #6F7B89",
"Y+	c #A0B6C3",
"Z+	c #9FB3BE",
"`+	c #6E7C89",
" @	c #B1C3CF",
".@	c #596B77",
"+@	c #4A5C68",
"@@	c #A1B3BF",
"#@	c #A1B5C0",
"$@	c #80929E",
"%@	c #253743",
"&@	c #9FB1BD",
"*@	c #B3C5D1",
"=@	c #576975",
"-@	c #4F616D",
";@	c #B2C4D0",
">@	c #A0B4BF",
",@	c #AFC1CD",
"'@	c #6D7D8A",
")@	c #394956",
"!@	c #A7B9C5",
"~@	c #6C7E8A",
"{@	c #384A56",
"]@	c #566874",
"^@	c #4E606C",
"/@	c #B0C2CE",
"(@	c #495B67",
"_@	c #243642",
":@	c #A0B2BE",
"<@	c #AEC0CC",
"[@	c #374955",
"}@	c #586A76",
"|@	c #7F919D",
"1@	c #9EB0BC",
"2@	c #6B7D89",
"3@	c #556773",
"4@	c #4D5F6B",
"5@	c #ADBFCB",
"6@	c #364854",
"7@	c #485A66",
"8@	c #7E909C",
"9@	c #233541",
"0@	c #9DAFBB",
"a@	c #4C5E6A",
"b@	c #475965",
"c@	c #9CAEBA",
"d@	c #546672",
"e@	c #6A7C88",
"f@	c #354753",
"g@	c #4B5D69",
"h@	c #ACBECA",
"i@	c #9CB2BD",
"j@	c #465864",
"k@	c #697B87",
"l@	c #9BADB9",
"m@	c #9BAEBC",
"n@	c #556876",
"o@	c #4A5D6B",
"p@	c #9DB0BE",
"q@	c #9EB1BF",
"r@	c #7C8F9D",
"s@	c #192C3A",
"t@	c #97AAB8",
"u@	c #9CAFBD",
"v@	c #526573",
"w@	c #506371",
"x@	c #6C7F8D",
"y@	c #3C4F5D",
"z@	c #9AADBB",
"A@	c #99ACBA",
"B@	c #566977",
"C@	c #798C9A",
"D@	c #657886",
"E@	c #3B4E5C",
"                                      . + @ # $ % & * = & - ; > , ' ) ! ~ * { ] ^ * & / ( _ : < [ } | 1 2 3 4 5 6 7 8 [ } 9 = * ",
"                                      0 a b c d e ] f g ] h i j k l m n - f & o * f ] p q r s t u v w x y z A B C D 2 E v g 9 f ",
"                                      i F G H I J ^ & = & K . L M N O P Q ] { f ^ ] * / ( _ : < [ R S 1 2 T 7 U V W X u Y = Z * ",
"                                      0 F G H I J & * = & K . L M N `  .Q ] ^ f & ] ] ..+._ : < [ R S E X T 7 U V W X u Y = Z * ",
"                                      > @.b #.$.~ ] f g ] h i %.k l `  .- o * &.] o f Z *.=.-.;.>.Y ,.'.).z A U C D 2 E v g 9 f ",
"                                      i F @ # $ e * ] 9 * Q !.0 ~.{.].! ~ ] { f & ] * / +.^.: /.[ R S E X (.4 5 6 7 _.[ R 9 = ] ",
"                                      i + @ # $ % & * = & Q i i :.<.` h [.* { ] ^ * & / ( _ : < [ R S E X T }.U |.4 _.1 } = Z ] ",
"                                      . + @ # $ % & * = & Q i i :.<.O K [.* { ] ^ * & / ( _ : < [ R S E X T 1.U |.4 _.E } = Z ] ",
"                                      . + @ # $ % & * = ^ Q i i 2.l O K [.* { ] ^ * & / ( _ : < [ R S E 8 3 1.U |.4 _.E R Z Z ] ",
"                                      . 3.@ # I J ^ & Z ^ [.. i 2.l O K ~ & 4.] { * & 5.6._ : /.7.8.9.u 8 3 1.U C }.0.E R Z Z * ",
"                                      ; 3.G H I J ^ & Z ^ [.. . 2.l ) - ~ & 4.* { & ^ 5.6.^.a./.7.8.9.u 8 3 b.c.C }.0.u R Z p * ",
"                                      ; 3.G H I J ^ & Z { [.. . d.N ) - ~ & 4.* { & ^ 5.6.^.a./.7.8.9.u _.3 b.c.C }.0.u 8.p p * ",
"                                      ; k G H I e.^ ^ p { ~ . . d.N ) - e ^ f.* 4.& ^ g.h.^.a./.i.8.j.>._.(.b.c.V 1.k.u 8.p p & ",
"                                      ; k G H l.e.{ ^ p { ~ ; . d.N ) - e ^ f.* 4.& ^ g.h.^.a.m.i.n.8.>._.o.p.c.V 1.k.u 8.p p & ",
"                                      !.M q.r.s.J & ^ p ^ ~ ; ; d.N ) K ~ ^ f.& 4.^ { g.h.t.u.A v.>.8.u 8 o.p.U w.x.y._.>.= ..^ ",
"                                      !.M q.r.s.e.& ^ p ^ ~ ; ; d.N ) - ~ ^ f.& 4.^ { g.h.z.u.A v.>.8.8 T o.p.A.w.x.y._.>.Z ..^ ",
"                                      !.M b B.s.e.^ ^ ..^ e ; ; d.N ) - ~ { C.& f.^ { D.E.z.u.A v.>.8._.T o.p.F.w.x.y._.[ Z / ^ ",
"                                      G.M b B.H.e.^ { ..^ e !.; j N ) - ~ { C.^ f.{ 4.D.E.z.u.A I.[ 8._.3 o.p.F.J.K.y.0.[ Z / { ",
"                                      G., b B.H.e.^ { ..{ e !.!.j ' ].- e { C.^ f.{ 4.D.E.L.M.7 I.[ n._.3 N.O.F.J.K.P.0.[ p / { ",
"                                      G., @ Q.H.R.^ { / { % !.!.j ' ].Q e 4.S.^ C.{ 4.T.U.L.M.7 I.[ n.0.3 N.O.V.J.K.P.0.7.p 5.{ ",
"                                      W., @ Q.X.R.{ 4./ { % G.!.j ' ].Q e 4.S.{ C.4.f.T.U.L.M.7 Y.7.n.0.(.N.O.V.J.p.P.0.7.p 5.{ ",
"                                      W.~.@ Q.X.R.{ 4./ { % G.!.%.' ].Q e 4.S.{ C.4.f.T.U.L.M.7 Y.7.Z.0.(.N.O.V.`.p.P.k.7.p 5.4.",
"                                      W.~.b Q.X. +4.f.5.4.J !.!.L ' O - e.4.S.^ C.{ 4.T.U.L.M..+Y.7.Z.k.y.N.O.V.J.K.P.0.7...5.{ ",
"                                      W.~.b Q.X. +4.f.5.4.J !.!.L ' O - e.4.S.{ C.4.f.T.U.L.++.+Y.7.@+k.y.N.O.V.J.p.P.0.7...5.{ ",
"                                      #+~.@ Q.X.$+f.f.5.4.J !.!.L {.O - e.4.S.{ C.4.f.T.U.L.++.+%+i.@+v.y.N.&+V.`.p.*+k.7...5.{ ",
"                                      #+=+@ Q.n $+f.C.g.f.e.!.!.L {.O - R.4.S.{ C.4.f.-+U.;+++.+%+i.@+v.P.>+&+,+`.p.*+k.7./ g.4.",
"                                      #+=+@ '+n $+f.C.g.f.e.G.G.> {.) Q R.f.)+{ S.f.f.-+!+;+++4 %+i.@+v.P.>+&+,+`.p.*+k.i./ g.4.",
"                                      ~+=+G '+n {+C.C.g.f.e.G.G.> ]+) Q R.f.)+4.S.f.C.-+!+;+^+4 /+(+_+I.P.>+:+,+<+O.[+v.i./ g.4.",
"                                      ~+:.G '+ .{+C.S.D.C.e.G.G.> ]+) Q  +f.)+4.S.f.C.-+!+}+^+4 /+(+_+I.*+|+:+,+<+O.[+v.i.5.D.f.",
"                                      ~+:.G '+ .{+C.S.D.C.R.G.G.> ]+) Q  +f.1+4.S.f.C.2+X.}+^+4 /+(+_+I.*+|+:+3+<+O.[+v.i.5.D.f.",
"                                      ~+:.@ '+n {+C.S.D.C.R.R.R.[.]+].[. +e.$+J  +e.R.4+n z.++}.5+(+_+I.*+6+:+,+`.&+7+I.(+5.D.C.",
"                                      ~+:.@ '+n {+C.S.D.5.R.R.R.[.8+].[. +e.$+J  +e.R.4+~.z.++}.5+(+_+I.[+6+9+,+`.&+7+I.(+5.T.C.",
"                                      ~+:.@ '+ .{+C.S.D.g.R.R.R.[.8+].[.$+e.$+J  +e.R.4+~.L.^+}.5+(+_+I.[+6+9+,+<+&+0+I.(+g.T.C.",
"                                      ~+:.G '+ .{+S.)+T.g. + + +[.8+].~ $+R.{+J $+e.R.a+=+L.^+1.5+b+_+I.[+c+9+,+<+&+0+Y.(+g.T.S.",
"                                      d+2.G e+ .4+S.)+T.g. + + +~ 8+f+~ $+R.{+e.$+R. +a+=+L.^+1.g+b+h+Y.[+c+9+3+<+:+0+Y.b+g.-+S.",
"                                      d+2.G e+P 4+S.)+T.D. + + +~ i+f+~ {+R.{+e.$+R. +a+=+;+j+1.g+b+h+Y.7+c+k+3+l+:+m+Y.b+D.-+S.",
"                                      d+2.n+e+P 4+S.)+-+D.$+ +$+~ i+f+e {+ +4+e.{+R. +o+:.;+j+b.g+p+h+Y.7+c+k+3+l+:+m+%+b+D.-+)+",
"                                      d+2.n+e+P 4+)+1+-+D.$+$+$+e i+q+e {+ +4+e.{+R. +o+:.;+j+b.r+p+h+Y.7+s+k+t+l+:+m+%+b+D.-+)+",
"                                      u+d.G e+P a+1+v+w+D.$+$+{+~ 8+].~ 4+ +4+R.{+ +$+o+:.L.j+b.x+y+z+%+0+s+k+3+<+&+0+%+p+D.w+)+",
"                                      u+d.G e+P a+1+v+w+T.$+{+{+~ 8+].~ 4+ +4+R.{+ +$+o+:.L.j+b.x+y+A+%+0+s+k+3+<+:+m+%+p+T.w+)+",
"                                      u+d.G e+! o+1+v+w+T.$+{+{+e 8+].~ 4+$+a+R.4+ +$+B+2.;+j+b.x+y+A+/+0+s+C+3+l+:+m+%+p+T.w+)+",
"                                      D+d.n+E+! o+v+v+w+T.{+{+{+e 8+].e 4+$+a+ +4+$+{+B+2.;+j+F+x+G+A+/+0+H+C+t+l+:+m+/+y+T.w+)+",
"                                      D+j n+E+! o+v+2+I+T.{+{+4+e i+f+e a+$+a+ +4+$+{+B+2.;+J+F+K+G+L+/+m+H+C+t+l+:+M+/+y+T.I+1+",
"                                      D+j n+E+N+B+v+2+I+-+{+4+4+% i+f+e a+{+o+ +a+$+{+O+d.}+J+F+K+G+L+5+m+H+P+t+Q+9+M+/+y+-+I+1+",
"                                      R+j S+T+N+B+v+2+I+-+4+4+4+% i+f+% a+{+o+$+a+{+4+O+d.}+J+U+K+V+L+5+m+W+P+X+Q+9+M+/+y+-+I+1+",
"                                      R+%.S+T+N+B+4+2+Y+v+4+4+4+% i+f+% a+{+o+$+a+{+4+O+d.}+J+U+Z+g+y+5+m+W+P+`+Q+9+M+5+5+-+I+v+",
"                                      W+ @.@+@U+@@c+M+#@m+s+H+H+N.$@%@o.W+c+@@6+H+c+s+&@*@=@-@;@@@0+>@[+W+@@,@'@)@ @@@M+M+g+r+0+",
"                                      W+ @.@+@*@@@s+H+W+s+s+H+H+N.$@%@o.W+s+@@6+W+c+s+&@;@=@-@ @@@s+@@!@W+@@,@~@{@ @@@H+M+M+r+0+",
"                                      @@ @.@+@*@@@s+H+W+s+H+H+H+N.$@%@N.W+s+@@c+W+s+H+&@;@]@^@ @@@s+@@6+@@@@,@~@{@ @@@W+M+M+r+0+",
"                                      @@/@.@(@*@@@s+H+W+s+H+H+W+N.$@_@N.@@s+@@c+W+s+H+&@;@]@^@ @@@s+@@6+@@:@<@~@[@ @:@W+M+M+x+0+",
"                                      @@/@}@(@*@:@H+W+@@H+H+W+W+>+|@_@N.@@s+:@c+@@s+H+1@;@]@^@ @:@s+:@6+@@:@<@2@[@/@:@W+#@#@x+m+",
"                                      :@/@}@(@;@:@H+W+@@H+W+W+W+>+|@_@>+@@H+:@s+@@H+W+1@ @3@4@/@:@H+:@c+:@:@<@2@[@/@:@W+#@#@x+m+",
"                                      :@,@}@(@;@:@H+W+@@H+W+W+W+>+|@_@>+@@H+:@s+@@H+W+1@ @3@4@/@:@H+:@c+:@&@5@2@6@/@:@@@#@#@K+m+",
"                                      :@,@}@7@;@:@H+W+@@H+W+W+@@>+8@9@>+:@H+:@s+@@H+W+1@ @3@4@/@:@H+:@c+:@&@5@2@6@,@&@@@#@#@K+m+",
"                                      :@,@.@7@/@1@W+W+@@W+W+@@@@>+$@%@N.:@W+&@s+:@H+W+0@/@3@4@,@&@W+&@c+:@&@<@2@6@/@:@@@#@M+x+m+",
"                                      &@,@}@7@/@1@W+W+:@W+W+@@:@>+$@%@N.:@W+&@H+:@W+@@0@/@3@4@,@1@W+&@c+:@&@5@2@6@/@&@@@#@#@x+M+",
"                                      &@<@}@7@/@0@W+W+:@W+@@:@:@|+$@%@>+&@W+&@H+:@W+@@0@/@3@a@,@1@@@1@s+:@&@5@2@6@,@&@@@#@#@K+M+",
"                                      &@<@}@b@,@0@W+@@:@@@@@:@:@|+|@%@>+&@W+&@H+:@W+@@c@/@d@a@<@1@@@1@s+&@&@5@e@6@,@&@@@>@#@K+M+",
"                                      1@<@=@b@,@0@@@@@:@@@@@:@&@|+|@_@>+&@@@1@H+&@@@@@c@,@d@a@<@1@@@1@s+&@1@5@e@f@,@&@:@>@#@K+M+",
"                                      1@5@=@b@,@c@@@@@&@@@:@&@&@!@|@_@|+1@@@1@W+&@@@:@c@,@d@g@<@0@:@0@s+&@1@h@e@f@<@1@:@>@>@i@#@",
"                                      1@5@=@j@<@c@@@:@&@:@:@&@&@!@8@_@|+1@@@1@W+&@@@:@c@,@s g@5@0@:@0@H+&@1@h@k@f@<@1@:@Z+>@i@#@",
"                                      1@5@=@j@<@c@:@:@&@:@:@&@&@!@8@_@|+1@@@0@W+&@@@:@l@,@s g@5@0@:@0@H+1@1@h@k@f@<@1@:@Z+>@i@#@",
"                                      m@% n@o@e p@B+m@a+B+q@p@B+~ r@s@R.t@u@u@o+m@q@B+u@[.v@w@e.p@u@B+q@o+u@- x@y@a+z@q@4+A@{+q@",
"                                      p@~ B@o@e q@a+u@O+A@4+A@p@B+C@` e u@q@q@a+p@O+o+p@Q v@w@J O+B+a+z@A@A@e D@E@[.{+u@m@p@4+u@"};
