/* XPM */
static char * door_2_xpm[] = {
"64 64 381 2",
"  	c None",
". 	c #ACBECC",
"+ 	c #BCCEDC",
"@ 	c #5B6D7B",
"# 	c #516371",
"$ 	c #BDD0DE",
"% 	c #AABDCB",
"& 	c #ABC1CE",
"* 	c #ACC2CF",
"= 	c #AAC2CE",
"- 	c #AFC2D0",
"; 	c #ABBDCB",
"> 	c #AFC1CF",
", 	c #B8CAD8",
"' 	c #8497A5",
") 	c #273A48",
"! 	c #B3C6D4",
"~ 	c #ACBFCD",
"{ 	c #A9BFCC",
"] 	c #ADC3D0",
"^ 	c #AAC0CD",
"/ 	c #A6BECA",
"( 	c #BAD0DD",
"_ 	c #5B6D79",
": 	c #51636F",
"< 	c #BDD1DC",
"[ 	c #A7BFC9",
"} 	c #A9C4CD",
"| 	c #A9C6CE",
"1 	c #ABC3CD",
"2 	c #ACC2CD",
"3 	c #ABBFCA",
"4 	c #B9CBD7",
"5 	c #72808D",
"6 	c #3A4A57",
"7 	c #BBCDD9",
"8 	c #AAC0CB",
"9 	c #ABC3CF",
"0 	c #AEC1CF",
"a 	c #B2C5D3",
"b 	c #98AAB8",
"c 	c #1C2E3C",
"d 	c #ADC0CE",
"e 	c #AEC0CE",
"f 	c #BED0DE",
"g 	c #5C6E7C",
"h 	c #526472",
"i 	c #BED1DF",
"j 	c #ABBECC",
"k 	c #AEC4D1",
"l 	c #ACC4D0",
"m 	c #B1C4D2",
"n 	c #ADBFCD",
"o 	c #B2C4D2",
"p 	c #BACCDA",
"q 	c #8699A7",
"r 	c #2A3D4B",
"s 	c #B6C9D7",
"t 	c #AFC5D2",
"u 	c #A8C0CC",
"v 	c #BCD2DF",
"w 	c #5D6F7B",
"x 	c #536571",
"y 	c #BFD3DE",
"z 	c #A9C1CB",
"A 	c #ABC6CF",
"B 	c #ABC8D0",
"C 	c #ADC5CF",
"D 	c #AEC4CF",
"E 	c #ADC1CC",
"F 	c #BCCEDA",
"G 	c #758390",
"H 	c #3D4D5A",
"I 	c #BED0DC",
"J 	c #AAC2CC",
"K 	c #B0C3D1",
"L 	c #B4C7D5",
"M 	c #9AACBA",
"N 	c #1E303E",
"O 	c #BDCFDD",
"P 	c #5A6C7A",
"Q 	c #506270",
"R 	c #BCCFDD",
"S 	c #A9BCCA",
"T 	c #B0C2D0",
"U 	c #B9CBD9",
"V 	c #8598A6",
"W 	c #283B49",
"X 	c #A8C3CC",
"Y 	c #A8C5CD",
"Z 	c #ACC0CB",
"` 	c #74828F",
" .	c #3C4C59",
"..	c #BDCFDB",
"+.	c #ABC1CC",
"@.	c #AAC5CE",
"#.	c #A9C1CD",
"$.	c #A8BECB",
"%.	c #97A9B7",
"&.	c #293C4A",
"*.	c #B5C8D6",
"=.	c #A7BFCB",
"-.	c #BBD1DE",
";.	c #BFD1DF",
">.	c #536573",
",.	c #BFD2E0",
"'.	c #B1C3D1",
").	c #B0C6D3",
"!.	c #BDD3E0",
"~.	c #5C6E7A",
"{.	c #526470",
"].	c #BED2DD",
"^.	c #A8C0CA",
"/.	c #AAC7CF",
"(.	c #ACC4CE",
"_.	c #ADC3CE",
":.	c #AABCCA",
"<.	c #B7C9D7",
"[.	c #8396A4",
"}.	c #263947",
"|.	c #5A6C78",
"1.	c #BCD0DB",
"2.	c #AABEC9",
"3.	c #A9BFCA",
"4.	c #99ABB9",
"5.	c #1D2F3D",
"6.	c #B5C7D5",
"7.	c #879AA8",
"8.	c #B8CAD6",
"9.	c #3E4E5B",
"0.	c #1F313F",
"a.	c #B7C9D5",
"b.	c #B4C6D4",
"c.	c #BBCDDB",
"d.	c #A5BDC9",
"e.	c #B9CFDC",
"f.	c #A6BEC8",
"g.	c #A7C2CB",
"h.	c #A7C4CC",
"i.	c #A8BEC9",
"j.	c #50626E",
"k.	c #B6C8D4",
"l.	c #73818E",
"m.	c #B3C5D3",
"n.	c #A7BDCA",
"o.	c #A8BBC9",
"p.	c #A4BCC8",
"q.	c #B8CEDB",
"r.	c #A5BDC7",
"s.	c #A6C3CB",
"t.	c #A7BDC8",
"u.	c #BBCEDC",
"v.	c #BBCFDA",
"w.	c #A6C1CA",
"x.	c #ABBDC9",
"y.	c #B7C7D4",
"z.	c #5D6F7D",
"A.	c #4F616F",
"B.	c #B9CCDA",
"C.	c #5C6C79",
"D.	c #51616E",
"E.	c #A6BCC7",
"F.	c #3F4D5A",
"G.	c #B9C9D6",
"H.	c #A9BDC8",
"I.	c #96A8B6",
"J.	c #5B6B78",
"K.	c #75818F",
"L.	c #4E606E",
"M.	c #A6BCC9",
"N.	c #A3BBC7",
"O.	c #B7CDDA",
"P.	c #74808E",
"Q.	c #A9BBC9",
"R.	c #B8CBD9",
"S.	c #A5BBC6",
"T.	c #3E4C59",
"U.	c #B8C8D5",
"V.	c #95A7B5",
"W.	c #5A6A77",
"X.	c #50606D",
"Y.	c #AABCC8",
"Z.	c #B6C6D3",
"`.	c #A8BCC7",
" +	c #4D5F6D",
".+	c #A7BAC8",
"++	c #A5BBC8",
"@+	c #A2BAC6",
"#+	c #B6CCD9",
"$+	c #737F8D",
"%+	c #A8BAC8",
"&+	c #B7CAD8",
"*+	c #A4BAC5",
"=+	c #94A6B4",
"-+	c #A5C0C9",
";+	c #3D4B58",
">+	c #A6B9C7",
",+	c #BACCD8",
"'+	c #4F5F6C",
")+	c #A4BFC8",
"!+	c #A7B9C7",
"~+	c #A5B8C6",
"{+	c #A3B9C4",
"]+	c #B5C5D2",
"^+	c #A7BBC6",
"/+	c #B6C8D6",
"(+	c #A1B9C5",
"_+	c #596976",
":+	c #A9BBC7",
"<+	c #727E8C",
"[+	c #4C5E6C",
"}+	c #A4BAC7",
"|+	c #B5CBD8",
"1+	c #A6B8C6",
"2+	c #A4B7C5",
"3+	c #8295A3",
"4+	c #4E5E6B",
"5+	c #A2B8C3",
"6+	c #A4BCC6",
"7+	c #A3BEC7",
"8+	c #B4C4D1",
"9+	c #3C4A57",
"0+	c #A6BAC5",
"a+	c #586875",
"b+	c #A8BAC6",
"c+	c #A3B9C6",
"d+	c #A1B7C4",
"e+	c #717D8B",
"f+	c #93A5B3",
"g+	c #A3B6C4",
"h+	c #A1B7C2",
"i+	c #A6B8C4",
"j+	c #A5B9C4",
"k+	c #8194A2",
"l+	c #B3C3D0",
"m+	c #A4B8C3",
"n+	c #A2B5C3",
"o+	c #A3BBC5",
"p+	c #A5B7C3",
"q+	c #A5B7C5",
"r+	c #4B5D6B",
"s+	c #253846",
"t+	c #A0B6C1",
"u+	c #A2BDC6",
"v+	c #8093A1",
"w+	c #4D5D6A",
"x+	c #B2C2CF",
"y+	c #3B4956",
"z+	c #A3B7C2",
"A+	c #A2B8C5",
"B+	c #92A4B2",
"C+	c #596B79",
"D+	c #A1B4C2",
"E+	c #A2BAC4",
"F+	c #A4B6C4",
"G+	c #243745",
"H+	c #9FB5C0",
"I+	c #A4B6C2",
"J+	c #707C8A",
"K+	c #A0B8C4",
"L+	c #9EB4BF",
"M+	c #A1B9C3",
"N+	c #A1BCC5",
"O+	c #A0BBC4",
"P+	c #A0B3C1",
"Q+	c #B1C1CE",
"R+	c #A3B5C3",
"S+	c #4A5C6A",
"T+	c #B5C7D3",
"U+	c #A0B8C2",
"V+	c #A3B5C1",
"W+	c #9FB7C3",
"X+	c #4C5C69",
"Y+	c #9DB3BE",
"Z+	c #9FBAC3",
"`+	c #A2B6C1",
" @	c #9FB2C0",
".@	c #B0C0CD",
"+@	c #3A4855",
"@@	c #A2B4C2",
"#@	c #586A78",
"$@	c #495B69",
"%@	c #B4C6D2",
"&@	c #9FB7C1",
"*@	c #A2B4C0",
"=@	c #6F7B89",
"-@	c #A0B6C3",
";@	c #91A3B1",
">@	c #9FB3BE",
",@	c #6E7C89",
"'@	c #B1C3CF",
")@	c #596B77",
"!@	c #4A5C68",
"~@	c #A1B3BF",
"{@	c #A1B5C0",
"]@	c #80929E",
"^@	c #253743",
"/@	c #9FB1BD",
"(@	c #B3C5D1",
"_@	c #576975",
":@	c #4F616D",
"<@	c #B2C4D0",
"[@	c #A0B4BF",
"}@	c #AFC1CD",
"|@	c #6D7D8A",
"1@	c #394956",
"2@	c #A7B9C5",
"3@	c #92A2AF",
"4@	c #1E2E3B",
"5@	c #A2B2BF",
"6@	c #6C7E8A",
"7@	c #384A56",
"8@	c #A4B4C1",
"9@	c #566874",
"0@	c #4E606C",
"a@	c #B0C2CE",
"b@	c #495B67",
"c@	c #243642",
"d@	c #A0B2BE",
"e@	c #AEC0CC",
"f@	c #374955",
"g@	c #A3B3C0",
"h@	c #586A76",
"i@	c #7F919D",
"j@	c #9EB0BC",
"k@	c #6B7D89",
"l@	c #91A1AE",
"m@	c #1D2D3A",
"n@	c #A1B1BE",
"o@	c #556773",
"p@	c #4D5F6B",
"q@	c #ADBFCB",
"r@	c #364854",
"s@	c #485A66",
"t@	c #7E909C",
"u@	c #233541",
"v@	c #9DAFBB",
"w@	c #A0B0BD",
"x@	c #4C5E6A",
"y@	c #475965",
"z@	c #9CAEBA",
"A@	c #546672",
"B@	c #6A7C88",
"C@	c #90A0AD",
"D@	c #9FAFBC",
"E@	c #354753",
"F@	c #9EB2BD",
"G@	c #4B5D69",
"H@	c #ACBECA",
"I@	c #9CB2BD",
"J@	c #1C2C39",
"K@	c #465864",
"L@	c #697B87",
"M@	c #8F9FAC",
"N@	c #9BADB9",
"O@	c #8EA0AC",
"P@	c #1B2D39",
"Q@	c #9EAEBB",
"R@	c #9BAEBC",
"S@	c #556876",
"T@	c #4A5D6B",
"U@	c #9DB0BE",
"V@	c #9EB1BF",
"W@	c #7C8F9D",
"X@	c #192C3A",
"Y@	c #97AAB8",
"Z@	c #9CAFBD",
"`@	c #526573",
" #	c #506371",
".#	c #6C7F8D",
"+#	c #3C4F5D",
"@#	c #9AADBB",
"##	c #99ACBA",
"$#	c #899CAA",
"%#	c #172A38",
"&#	c #9DAFBD",
"*#	c #566977",
"=#	c #798C9A",
"-#	c #657886",
";#	c #3B4E5C",
">#	c #8A9DAB",
"                . + @ # $ % & * = & - ; > , ' ) ! ~ * { ] ^ * & / ( _ : < [ } | 1 2 3 4 5 6 7 8 [ } 9 = * { 0 a b c ; . d d ^ ^ ",
"                e f g h i j ] k l ] m n o p q r s - k & t * k ] u v w x y z A B C D E F G H I 2 J A l 9 k ^ K L M N n e - - * * ",
"                n O P Q R S ^ & = & K . T U V W L 0 ] { k ^ ] * / ( _ : < [ X Y 1 2 Z 7 `  ...+.z @.= #.* $.d m %.c . n 0 0 & ^ ",
"                e O P Q R S & * = & K . T U V &.*.0 ] ^ k & ] ] =.-._ : < [ X Y J +.Z 7 `  ...+.z @.= #.* $.0 a b c . e 0 - * & ",
"                > ;.g >.,.~ ] k l ] m n '.p q &.*.- t * ).] t k #.!.~.{.].^.@./.(._.E F ` H I 2 J A l 9 k & K L M N e > K K ] ] ",
"                n O @ # $ j * ] 9 * 0 :.e <.[.}.! ~ ] { k & ] * / -.|.: 1.[ X Y J +.2.4 5 6 7 3.[ X 9 = ] { - ! 4.5.. n 0 0 & ^ ",
"                n + @ # $ % & * = & 0 n n 6.7.&.m d * { ] ^ * & / ( _ : < [ X Y J +.Z 8.` 9.4 3.1 } = #.] { d m 4.0.. n 0 0 & & ",
"                . + @ # $ % & * = & 0 n n 6.7.W K d * { ] ^ * & / ( _ : < [ X Y J +.Z a.` 9.4 3.J } = #.] { d m 4.0.. n 0 0 & & ",
"                . + @ # $ % & * = ^ 0 n n b.q W K d * { ] ^ * & / ( _ : < [ X Y J 8 3 a.` 9.4 3.J X #.#.] $.d m b N . n 0 0 & ^ ",
"                . c.@ # R S ^ & #.^ d . n b.q W K ~ & $.] { * & d.e._ : 1.f.g.h.z 8 3 a.` H 8.i.J X #.#.* $.d m b N ; n d 0 & ^ ",
"                ; c.P Q R S ^ & #.^ d . . b.q ) - ~ & $.* { & ^ d.e.|.j.1.f.g.h.z 8 3 k.l.H 8.i.z X #.u * $.~ K b N ; . d d ^ ^ ",
"                ; c.P Q R S ^ & #.{ d . . m.V ) - ~ & $.* { & ^ d.e.|.j.1.f.g.h.z 3.3 k.l.H 8.i.z g.u u * n.~ K %.5.; . d d ^ { ",
"                ; p P Q R o.^ ^ u { ~ . . m.V ) - j ^ n.* $.& ^ p.q.|.j.1.r.g.s.^.3.2.k.l. .a.t.z g.u u & n.~ K %.5.:.. ~ d ^ { ",
"                ; p P Q u.o.{ ^ u { ~ ; . m.V ) - j ^ n.* $.& ^ p.q.|.j.v.r.w.g.^.3.x.y.l. .a.t.z g.u u & n.~ K %.5.:.. ~ ~ ^ { ",
"                :.U z.A.B.S & ^ u ^ ~ ; ; m.V ) K ~ ^ n.& $.^ { p.q.C.D.F E.^.g.z 8 x.y.` F.G.H.3.^.= =.^ $.d - I.N :.; ~ ~ { $.",
"                :.U z.A.B.o.& ^ u ^ ~ ; ; m.V ) - ~ ^ n.& $.^ { p.q.J.D.F E.^.g.8 Z x.y.K.F.G.H.3.^.#.=.^ $.d 0 I.N :.; ~ ~ { $.",
"                :.U g L.B.o.^ ^ =.^ j ; ; m.V ) - ~ { M.& n.^ { N.O.J.D.F E.^.g.3.Z x.y.P.F.G.H.3.[ #./ ^ $.d 0 I.N Q.; j ~ { $.",
"                Q.U g L.R.o.^ { =.^ j :.; o V ) - ~ { M.^ n.{ $.N.O.J.D.F S.[ g.3.3 x.y.P.T.U.H.i.[ #./ { $.~ 0 V.N Q.; j j $.$.",
"                Q., g L.R.o.^ { =.{ j :.:.o ' }.- j { M.^ n.{ $.N.O.W.X.7 S.[ w.3.3 Y.Z.P.T.U.`.i.[ u / { n.~ 0 V.5.Q.:.j j $.n.",
"                Q., @  +R..+^ { / { % :.:.o ' }.0 j $.++^ M.{ $.@+#+W.X.7 S.[ w.i.3 Y.Z.$+T.U.`.i.f.u d.{ n.~ d V.5.%+:.% j $.n.",
"                %+, @  +&+.+{ $./ { % Q.:.o ' }.0 j $.++{ M.$.n.@+#+W.X.7 *+f.w.i.2.Y.Z.$+T.y.`.i.f.u d.{ n.j d =+5.%+:.% % n.n.",
"                %+<.@  +&+.+{ $./ { % Q.:.'.' }.0 j $.++{ M.$.n.@+#+W.X.7 *+f.-+i.2.Y.Z.$+;+y.`.t.f.u d.$.n.j d =+5.%+Q.% % n.n.",
"                %+<.g  +&+>+$.n.d.$.S :.:.T ' W - o.$.++^ M.{ $.@+#+W.X.,+*+f.-+t.H.Y.Z.$+T.U.`.i.f.=.d.{ n.% ~ V.0.%+:.% % $.n.",
"                %+<.g  +&+>+$.n.d.$.S :.:.T ' W - o.$.++{ M.$.n.@+#+W.'+,+*+f.)+t.H.Y.Z.$+T.y.`.i.f.=.d.{ n.% ~ V.0.%+:.% % n.n.",
"                !+<.@  +&+~+n.n.d.$.S :.:.T [.W - o.$.++{ M.$.n.@+#+W.'+,+{+r.)+E.H.Y.]+$+;+y.^+t.f.=.d.{ M.% ~ V.0.%+Q.% % n.n.",
"                !+/+@  +s ~+n.M.p.n.o.:.:.T [.W - .+$.++{ M.$.n.(+#+_+'+,+{+r.)+E.`.:+]+<+;+y.^+t.f./ p.$.M.% j V.0.!+Q.% % n.M.",
"                !+/+@ [+s ~+n.M.p.n.o.Q.Q.> [.) 0 .+n.}+{ ++n.n.(+|+_+'+4 {+r.)+E.`.:+]+<+;+y.^+t.r./ p.$.M.S j =+N !+Q.S S n.M.",
"                1+/+P [+s 2+M.M.p.n.o.Q.Q.> 3+) 0 .+n.}+$.++n.M.(+|+_+4+4 5+6+7+S.`.:+8+<+9+Z.0+E.r./ p.$.++S j =+N !+%+S S M.M.",
"                1+6.P [+*.2+M.++N.M.o.Q.Q.> 3+) 0 >+n.}+$.++n.M.(+|+a+4+4 5+6+7+S.^+b+8+<+9+Z.0+E.r.d.N.n.++S j =+N !+%+S S M.++",
"                1+6.P [+*.2+M.++N.M..+Q.Q.> 3+) 0 >+n.c+$.++n.M.d+&+a+4+4 5+6+7+S.^+b+8+e+9+Z.0+E.r.d.N.n.++S % f+5.1+%+S S M.++",
"                1+6.@ [+s 2+M.++N.M..+.+.+d 3+}.d >+o.~+S >+o..+g+s J.'+8.h+6+7+S.^+i+8+<+;+]+j+S.6+d.N.M.}+o.% =+N 1+!+o.o.++++",
"                1+6.@ [+s 2+M.++N.d..+.+.+d k+}.d >+o.~+S >+o..+g+<.J.'+8.h+6+7+S.0+i+l+<+;+]+j+S.6+d.@+M.}+o.% =+N 1+!+o.o.++++",
"                1+6.@ [+*.2+M.++N.p..+.+.+d k+}.d ~+o.~+S >+o..+g+<.W.4+8.h+6+7+S.0+i+l+<+9+]+m+S.6+p.@+M.c+.+% f+N 1+!+o.o.++}+",
"                1+6.P [+*.2+++}+@+p.>+>+>+d k+}.~ ~+.+2+S ~+o..+n+/+W.4+a.h+o+7+S.0+p+l+<+9+]+m+*+6+p.@+++c+.+S f+N q+!+.+o.++}+",
"                q+b.P r+*.g+++}+@+p.>+>+>+~ k+s+~ ~+.+2+o.~+.+>+n+/+W.4+a.t+o+u+*+0+p+l+e+9+8+m+*+o+p.(+++c+.+S f+5.q+1+.+.+}+}+",
"                q+b.P r+L g+++}+@+N.>+>+>+~ v+s+~ 2+.+2+o.~+.+>+n+/+_+w+a.t+o+u+*+j+p+x+e+y+8+z+*+o+N.(+++A+>+S B+5.q+1+.+.+}+c+",
"                q+b.C+r+L g+++}+(+N.~+>+~+~ v+s+j 2+>+g+o.2+.+>+D+6._+w+k.t+E+u+*+j+p+x+e+y+8+z+{+o+N.(+}+A+>+o.B+5.F+1+>+.+}+c+",
"                q+b.C+r+L g+}+c+(+N.~+~+~+j v+G+j 2+>+g+o.2+.+>+D+6._+w+k.H+E+u+*+j+I+x+J+y+8+z+{+o+N.(+}+A+>+o.B+5.F+1+>+>+}+c+",
"                F+m.P r+L n+c+A+K+N.~+~+2+~ k+}.~ g+>+g+.+2+>+~+D+6.W.w+k.L+M+N+{+m+I+x+e+9+]+m+{+E+N.K+}+A+>+S f+5.F+q+>+>+c+A+",
"                F+m.P r+L n+c+A+K+@+~+2+2+~ k+}.~ g+>+g+.+2+>+~+D+6.W.w+k.L+M+O+{+m+I+x+e+9+8+z+{+E+@+K+}+A+>+S f+5.F+q+>+>+c+A+",
"                F+m.P r+! D+c+A+K+@+~+2+2+j k+}.~ g+~+n+.+g+>+~+P+b._+w+k.L+M+O+5+m+I+Q+e+y+8+z+{+E+@+K+}+A+>+S f+5.R+q+~+>+c+A+",
"                R+m.C+S+! D+A+A+K+@+2+2+2+j k+}.j g+~+n+>+g+~+2+P+b._+w+T+L+U+O+5+m+V+Q+J+y+8+z+5+M+@+K+}+d+>+o.B+5.R+q+~+~+A+A+",
"                R+o C+S+! D+A+d+W+@+2+2+g+j v+s+j n+~+n+>+g+~+2+P+b._+X+T+Y+U+Z+5+z+V+Q+J+y+8+`+5+M+@+W+c+d+~+o.B+c R+F+~+~+A+d+",
"                R+o C+S+a P+A+d+W+(+2+g+g+% v+s+j n+2+D+>+n+~+2+ @m.a+X+T+Y+U+Z+h+z+V+.@J++@l+`+5+M+(+W+c+d+~+o.B+c @@F+2+~+A+d+",
"                @@o #@$@a P+A+d+W+(+g+g+g+% v+s+% n+2+D+~+n+2+g+ @m.a+X+%@Y+&@Z+h+z+*@.@=@+@l+`+5+M+(+W+c+-@~+.+;@c @@F+2+2+d+d+",
"                @@'.#@$@a P+g+d+-@A+g+g+g+% v+s+% n+2+D+~+n+2+g+ @m.a+X+%@>@t+M+h+z+*@.@,@+@l+`+h+h+(+W+A+-@~+.+;@c @@R+q+2+g+d+",
"                *@'@)@!@%@~@p+`+{@z+I+V+V+Y.]@^@x.*@p+~@i+V+p+I+/@(@_@:@<@~@m+[@0+*@~@}@|@1@'@~@`+`+t+H+m+`+I+2@3@4@5@V+p+m+z+t+",
"                *@'@)@!@(@~@I+V+*@I+I+V+V+Y.]@^@x.*@I+~@i+*@p+I+/@<@_@:@'@~@I+~@2@*@~@}@6@7@'@~@V+`+`+H+m+{@I+2@3@4@5@8@I+p+z+`+",
"                ~@'@)@!@(@~@I+V+*@I+V+V+V+Y.]@^@Y.*@I+~@p+*@I+V+/@<@9@0@'@~@I+~@i+~@~@}@6@7@'@~@*@`+`+H+m+{@I+i+3@4@5@8@I+I+`+`+",
"                ~@a@)@b@(@~@I+V+*@I+V+V+*@Y.]@c@Y.~@I+~@p+*@I+V+/@<@9@0@'@~@I+~@i+~@d@e@6@f@'@d@*@`+`+L+m+{@V+i+3@4@5@g@I+I+`+`+",
"                ~@a@h@b@(@d@V+*@~@V+V+*@*@:+i@c@Y.~@I+d@p+~@I+V+j@<@9@0@'@d@I+d@i+~@d@e@k@f@a@d@*@{@{@L+z+{@V+i+l@m@n@g@V+I+`+{@",
"                d@a@h@b@<@d@V+*@~@V+*@*@*@:+i@c@:+~@V+d@I+~@V+*@j@'@o@p@a@d@V+d@p+d@d@e@k@f@a@d@*@{@{@L+z+[@V+p+l@m@n@g@V+V+{@{@",
"                d@}@h@b@<@d@V+*@~@V+*@*@*@:+i@c@:+~@V+d@I+~@V+*@j@'@o@p@a@d@V+d@p+d@/@q@k@r@a@d@~@{@{@Y+z+[@*@p+l@m@n@5@V+V+{@{@",
"                d@}@h@s@<@d@V+*@~@V+*@*@~@:+t@u@:+d@V+d@I+~@V+*@j@'@o@p@a@d@V+d@p+d@/@q@k@r@}@/@~@{@{@Y+z+[@*@p+l@m@n@5@V+V+{@{@",
"                d@}@)@s@a@j@*@*@~@*@*@~@~@:+]@^@Y.d@*@/@I+d@V+*@v@a@o@p@}@/@*@/@p+d@/@e@k@r@a@d@~@{@`+L+z+>@*@p+l@4@w@5@*@*@{@[@",
"                /@}@h@s@a@j@*@*@d@*@*@~@d@:+]@^@Y.d@*@/@V+d@*@~@v@a@o@p@}@j@*@/@p+d@/@q@k@r@a@/@~@{@{@L+`+>@*@p+l@m@w@5@*@*@[@[@",
"                /@e@h@s@a@v@*@*@d@*@~@d@d@b+]@^@:+/@*@/@V+d@*@~@v@a@o@x@}@j@~@j@I+d@/@q@k@r@}@/@~@{@{@Y+`+>@~@p+l@m@w@n@*@*@[@[@",
"                /@e@h@y@}@v@*@~@d@~@~@d@d@b+i@^@:+/@*@/@V+d@*@~@z@a@A@x@e@j@~@j@I+/@/@q@B@r@}@/@~@[@{@Y+`+>@~@I+C@m@D@n@*@*@[@>@",
"                j@e@_@y@}@v@~@~@d@~@~@d@/@b+i@c@:+/@~@j@V+/@~@~@z@}@A@x@e@j@~@j@I+/@j@q@B@E@}@/@d@[@{@Y+`+F@~@I+C@m@D@n@~@~@[@>@",
"                j@q@_@y@}@z@~@~@/@~@d@/@/@2@i@c@b+j@~@j@*@/@~@d@z@}@A@G@e@v@d@v@I+/@j@H@B@E@e@j@d@[@[@I@{@F@d@I+C@J@D@w@~@~@>@>@",
"                j@q@_@K@e@z@~@d@/@d@d@/@/@2@t@c@b+j@~@j@*@/@~@d@z@}@x G@q@v@d@v@V+/@j@H@L@E@e@j@d@>@[@I@{@F@d@V+M@J@D@w@~@~@>@F@",
"                j@q@_@K@e@z@d@d@/@d@d@/@/@2@t@c@b+j@~@v@*@/@~@d@N@}@x G@q@v@d@v@V+j@j@H@L@E@e@j@d@>@[@I@{@F@d@V+O@P@Q@/@~@~@>@F@",
"                R@% S@T@j U@P+R@n+P+V@U@P+~ W@X@.+Y@Z@Z@D+R@V@P+Z@d `@ #o.U@Z@P+V@D+Z@- .#+#n+@#V@g+##2+V@Z@R@o.$#%#&#U@ @ @V@V@",
"                U@~ *#T@j V@n+Z@ @##g+##U@P+=#&.j Z@V@V@n+U@ @D+U@0 `@ #S  @P+n+@#####j -#;#d 2+Z@R@U@g+Z@Z@Y@n+>#s+ @D+n+g+n+D+"};
