/* XPM */
static char * door_6_xpm[] = {
"64 64 138 2",
"  	c None",
". 	c #ACBECC",
"+ 	c #BCCEDC",
"@ 	c #5B6D7B",
"# 	c #516371",
"$ 	c #BDD0DE",
"% 	c #AABDCB",
"& 	c #ABC1CE",
"* 	c #ACC2CF",
"= 	c #AAC2CE",
"- 	c #AEC0CE",
"; 	c #BED0DE",
"> 	c #5C6E7C",
", 	c #526472",
"' 	c #BED1DF",
") 	c #ABBECC",
"! 	c #ADC3D0",
"~ 	c #AEC4D1",
"{ 	c #ACC4D0",
"] 	c #ADBFCD",
"^ 	c #BDCFDD",
"/ 	c #5A6C7A",
"( 	c #506270",
"_ 	c #BCCFDD",
": 	c #A9BCCA",
"< 	c #AAC0CD",
"[ 	c #AFC1CF",
"} 	c #BFD1DF",
"| 	c #536573",
"1 	c #BFD2E0",
"2 	c #ACBFCD",
"3 	c #ABC3CF",
"4 	c #BBCDDB",
"5 	c #A9C1CD",
"6 	c #ABBDCB",
"7 	c #BACCDA",
"8 	c #A8BBC9",
"9 	c #A8C0CC",
"0 	c #BBCEDC",
"a 	c #A9BFCC",
"b 	c #AABCCA",
"c 	c #B9CBD9",
"d 	c #5D6F7D",
"e 	c #4F616F",
"f 	c #B9CCDA",
"g 	c #4E606E",
"h 	c #A7BFCB",
"i 	c #A9BBC9",
"j 	c #B8CBD9",
"k 	c #B8CAD8",
"l 	c #4D5F6D",
"m 	c #A7BAC8",
"n 	c #A6BECA",
"o 	c #A8BAC8",
"p 	c #B7CAD8",
"q 	c #A8BECB",
"r 	c #B7C9D7",
"s 	c #A6B9C7",
"t 	c #A7BDCA",
"u 	c #A5BDC9",
"v 	c #A7B9C7",
"w 	c #A5B8C6",
"x 	c #B6C8D6",
"y 	c #B6C9D7",
"z 	c #A6BCC9",
"A 	c #A4BCC8",
"B 	c #4C5E6C",
"C 	c #A6B8C6",
"D 	c #A4B7C5",
"E 	c #B5C7D5",
"F 	c #B5C8D6",
"G 	c #A5BBC8",
"H 	c #A3BBC7",
"I 	c #A4BAC7",
"J 	c #A2BAC6",
"K 	c #A5B7C5",
"L 	c #B4C6D4",
"M 	c #4B5D6B",
"N 	c #A3B6C4",
"O 	c #B4C7D5",
"P 	c #596B79",
"Q 	c #A1B9C5",
"R 	c #A3B9C6",
"S 	c #A4B6C4",
"T 	c #B3C5D3",
"U 	c #A2B5C3",
"V 	c #A2B8C5",
"W 	c #A0B8C4",
"X 	c #B3C6D4",
"Y 	c #A1B4C2",
"Z 	c #A3B5C3",
"` 	c #4A5C6A",
" .	c #B2C4D2",
"..	c #A1B7C4",
"+.	c #9FB7C3",
"@.	c #B2C5D3",
"#.	c #A0B3C1",
"$.	c #A2B4C2",
"%.	c #586A78",
"&.	c #495B69",
"*.	c #B1C3D1",
"=.	c #A0B6C3",
"-.	c #A2B4C0",
";.	c #B1C3CF",
">.	c #596B77",
",.	c #4A5C68",
"'.	c #B4C6D2",
").	c #A1B3BF",
"!.	c #A5B7C3",
"~.	c #A2B6C1",
"{.	c #A1B5C0",
"].	c #B3C5D1",
"^.	c #A4B6C2",
"/.	c #A3B5C1",
"(.	c #B0C2CE",
"_.	c #495B67",
":.	c #586A76",
"<.	c #A0B2BE",
"[.	c #B2C4D0",
"}.	c #AFC1CD",
"|.	c #485A66",
"1.	c #9EB0BC",
"2.	c #9FB1BD",
"3.	c #AEC0CC",
"4.	c #9DAFBB",
"5.	c #475965",
"6.	c #576975",
"7.	c #ADBFCB",
"8.	c #9CAEBA",
"9.	c #465864",
"0.	c #9BAEBC",
"a.	c #556876",
"b.	c #4A5D6B",
"c.	c #9DB0BE",
"d.	c #566977",
"e.	c #9EB1BF",
"f.	c #9CAFBD",
"g.	c #9FB2C0",
"                                                                                                              . + @ # $ % & * = ",
"                                                                                                              - ; > , ' ) ! ~ { ",
"                                                                                                              ] ^ / ( _ : < & = ",
"                                                                                                              - ^ / ( _ : & * = ",
"                                                                                                              [ } > | 1 2 ! ~ { ",
"                                                                                                              ] ^ @ # $ ) * ! 3 ",
"                                                                                                              ] + @ # $ % & * = ",
"                                                                                                              . + @ # $ % & * = ",
"                                                                                                              . + @ # $ % & * = ",
"                                                                                                              . 4 @ # _ : < & 5 ",
"                                                                                                              6 4 / ( _ : < & 5 ",
"                                                                                                              6 4 / ( _ : < & 5 ",
"                                                                                                              6 7 / ( _ 8 < < 9 ",
"                                                                                                              6 7 / ( 0 8 a < 9 ",
"                                                                                                              b c d e f : & < 9 ",
"                                                                                                              b c d e f 8 & < 9 ",
"                                                                                                              b c > g f 8 < < h ",
"                                                                                                              i c > g j 8 < a h ",
"                                                                                                              i k > g j 8 < a h ",
"                                                                                                              i k @ l j m < a n ",
"                                                                                                              o k @ l p m a q n ",
"                                                                                                              o r @ l p m a q n ",
"                                                                                                              o r > l p s q t u ",
"                                                                                                              o r > l p s q t u ",
"                                                                                                              v r @ l p w t t u ",
"                                                                                                              v x @ l y w t z A ",
"                                                                                                              v x @ B y w t z A ",
"                                                                                                              C x / B y D z z A ",
"                                                                                                              C E / B F D z G H ",
"                                                                                                              C E / B F D z G H ",
"                                                                                                              C E @ B y D z G H ",
"                                                                                                              C E @ B y D z G H ",
"                                                                                                              C E @ B F D z G H ",
"                                                                                                              C E / B F D G I J ",
"                                                                                                              K L / M F N G I J ",
"                                                                                                              K L / M O N G I J ",
"                                                                                                              K L P M O N G I Q ",
"                                                                                                              K L P M O N I R Q ",
"                                                                                                              S T / M O U R V W ",
"                                                                                                              S T / M O U R V W ",
"                                                                                                              S T / M X Y R V W ",
"                                                                                                              Z T P ` X Y V V W ",
"                                                                                                              Z  .P ` X Y V ..+.",
"                                                                                                              Z  .P ` @.#.V ..+.",
"                                                                                                              $. .%.&.@.#.V ..+.",
"                                                                                                              $.*.%.&.@.#.N ..=.",
"                                                                                                              -.;.>.,.'.).!.~.{.",
"                                                                                                              -.;.>.,.].).^./.-.",
"                                                                                                              ).;.>.,.].).^./.-.",
"                                                                                                              ).(.>._.].).^./.-.",
"                                                                                                              ).(.:._.].<./.-.).",
"                                                                                                              <.(.:._.[.<./.-.).",
"                                                                                                              <.}.:._.[.<./.-.).",
"                                                                                                              <.}.:.|.[.<./.-.).",
"                                                                                                              <.}.>.|.(.1.-.-.).",
"                                                                                                              2.}.:.|.(.1.-.-.<.",
"                                                                                                              2.3.:.|.(.4.-.-.<.",
"                                                                                                              2.3.:.5.}.4.-.).<.",
"                                                                                                              1.3.6.5.}.4.).).<.",
"                                                                                                              1.7.6.5.}.8.).).2.",
"                                                                                                              1.7.6.9.3.8.).<.2.",
"                                                                                                              1.7.6.9.3.8.<.<.2.",
"                                                                                                              0.% a.b.) c.#.0.U ",
"                                                                                                              c.2 d.b.) e.U f.g."};
