/* XPM */
static char * door_4_xpm[] = {
"64 64 284 2",
"  	c None",
". 	c #ACBECC",
"+ 	c #BCCEDC",
"@ 	c #5B6D7B",
"# 	c #516371",
"$ 	c #BDD0DE",
"% 	c #AABDCB",
"& 	c #ABC1CE",
"* 	c #ACC2CF",
"= 	c #AAC2CE",
"- 	c #AFC2D0",
"; 	c #ABBDCB",
"> 	c #AFC1CF",
", 	c #B8CAD8",
"' 	c #8497A5",
") 	c #273A48",
"! 	c #B3C6D4",
"~ 	c #ACBFCD",
"{ 	c #A9BFCC",
"] 	c #ADC3D0",
"^ 	c #AAC0CD",
"/ 	c #A6BECA",
"( 	c #BAD0DD",
"_ 	c #5B6D79",
": 	c #51636F",
"< 	c #BDD1DC",
"[ 	c #A7BFC9",
"} 	c #A9C4CD",
"| 	c #A9C6CE",
"1 	c #ABC3CD",
"2 	c #AEC0CE",
"3 	c #BED0DE",
"4 	c #5C6E7C",
"5 	c #526472",
"6 	c #BED1DF",
"7 	c #ABBECC",
"8 	c #AEC4D1",
"9 	c #ACC4D0",
"0 	c #B1C4D2",
"a 	c #ADBFCD",
"b 	c #B2C4D2",
"c 	c #BACCDA",
"d 	c #8699A7",
"e 	c #2A3D4B",
"f 	c #B6C9D7",
"g 	c #AFC5D2",
"h 	c #A8C0CC",
"i 	c #BCD2DF",
"j 	c #5D6F7B",
"k 	c #536571",
"l 	c #BFD3DE",
"m 	c #A9C1CB",
"n 	c #ABC6CF",
"o 	c #ABC8D0",
"p 	c #ADC5CF",
"q 	c #BDCFDD",
"r 	c #5A6C7A",
"s 	c #506270",
"t 	c #BCCFDD",
"u 	c #A9BCCA",
"v 	c #B0C3D1",
"w 	c #B0C2D0",
"x 	c #B9CBD9",
"y 	c #8598A6",
"z 	c #283B49",
"A 	c #B4C7D5",
"B 	c #AEC1CF",
"C 	c #A8C3CC",
"D 	c #A8C5CD",
"E 	c #293C4A",
"F 	c #B5C8D6",
"G 	c #A7BFCB",
"H 	c #BBD1DE",
"I 	c #AAC2CC",
"J 	c #BFD1DF",
"K 	c #536573",
"L 	c #BFD2E0",
"M 	c #B1C3D1",
"N 	c #B0C6D3",
"O 	c #A9C1CD",
"P 	c #BDD3E0",
"Q 	c #5C6E7A",
"R 	c #526470",
"S 	c #BED2DD",
"T 	c #A8C0CA",
"U 	c #AAC5CE",
"V 	c #AAC7CF",
"W 	c #ACC4CE",
"X 	c #ABC3CF",
"Y 	c #AABCCA",
"Z 	c #B7C9D7",
"` 	c #8396A4",
" .	c #263947",
"..	c #5A6C78",
"+.	c #BCD0DB",
"@.	c #B5C7D5",
"#.	c #879AA8",
"$.	c #ADC0CE",
"%.	c #B4C6D4",
"&.	c #BBCDDB",
"*.	c #A8BECB",
"=.	c #A5BDC9",
"-.	c #B9CFDC",
";.	c #A6BEC8",
">.	c #A7C2CB",
",.	c #A7C4CC",
"'.	c #50626E",
").	c #B3C5D3",
"!.	c #A8BBC9",
"~.	c #A7BDCA",
"{.	c #A4BCC8",
"].	c #B8CEDB",
"^.	c #A5BDC7",
"/.	c #A6C3CB",
"(.	c #BBCEDC",
"_.	c #BBCFDA",
":.	c #A6C1CA",
"<.	c #5D6F7D",
"[.	c #4F616F",
"}.	c #B9CCDA",
"|.	c #5C6C79",
"1.	c #51616E",
"2.	c #BCCEDA",
"3.	c #A6BCC7",
"4.	c #5B6B78",
"5.	c #AAC0CB",
"6.	c #4E606E",
"7.	c #A6BCC9",
"8.	c #A3BBC7",
"9.	c #B7CDDA",
"0.	c #A9BFCA",
"a.	c #A9BBC9",
"b.	c #B8CBD9",
"c.	c #A5BBC6",
"d.	c #5A6A77",
"e.	c #50606D",
"f.	c #BBCDD9",
"g.	c #4D5F6D",
"h.	c #A7BAC8",
"i.	c #A5BBC8",
"j.	c #A2BAC6",
"k.	c #B6CCD9",
"l.	c #A8BEC9",
"m.	c #A8BAC8",
"n.	c #B7CAD8",
"o.	c #A4BAC5",
"p.	c #A5C0C9",
"q.	c #A6B9C7",
"r.	c #BACCD8",
"s.	c #A7BDC8",
"t.	c #4F5F6C",
"u.	c #A4BFC8",
"v.	c #A7B9C7",
"w.	c #A5B8C6",
"x.	c #A3B9C4",
"y.	c #B6C8D6",
"z.	c #A1B9C5",
"A.	c #596976",
"B.	c #4C5E6C",
"C.	c #A4BAC7",
"D.	c #B5CBD8",
"E.	c #B9CBD7",
"F.	c #A6B8C6",
"G.	c #A4B7C5",
"H.	c #8295A3",
"I.	c #4E5E6B",
"J.	c #A2B8C3",
"K.	c #A4BCC6",
"L.	c #A3BEC7",
"M.	c #586875",
"N.	c #A3B9C6",
"O.	c #A1B7C4",
"P.	c #A3B6C4",
"Q.	c #B8CAD6",
"R.	c #A1B7C2",
"S.	c #8194A2",
"T.	c #A2B5C3",
"U.	c #B7C9D5",
"V.	c #A3BBC5",
"W.	c #A5B7C5",
"X.	c #4B5D6B",
"Y.	c #253846",
"Z.	c #A0B6C1",
"`.	c #A2BDC6",
" +	c #8093A1",
".+	c #4D5D6A",
"++	c #596B79",
"@+	c #A1B4C2",
"#+	c #B6C8D4",
"$+	c #A2BAC4",
"%+	c #243745",
"&+	c #9FB5C0",
"*+	c #A4B6C4",
"=+	c #A2B8C5",
"-+	c #A0B8C4",
";+	c #9EB4BF",
">+	c #A1B9C3",
",+	c #A1BCC5",
"'+	c #A0BBC4",
")+	c #A0B3C1",
"!+	c #A3B5C3",
"~+	c #4A5C6A",
"{+	c #B5C7D3",
"]+	c #A0B8C2",
"^+	c #9FB7C3",
"/+	c #4C5C69",
"(+	c #9DB3BE",
"_+	c #9FBAC3",
":+	c #B2C5D3",
"<+	c #9FB2C0",
"[+	c #A2B4C2",
"}+	c #586A78",
"|+	c #495B69",
"1+	c #B4C6D2",
"2+	c #9FB7C1",
"3+	c #A0B6C3",
"4+	c #9FB3BE",
"5+	c #A2B4C0",
"6+	c #B1C3CF",
"7+	c #596B77",
"8+	c #4A5C68",
"9+	c #A1B3BF",
"0+	c #A5B7C3",
"a+	c #A2B6C1",
"b+	c #A1B5C0",
"c+	c #A3B7C2",
"d+	c #A4B6C2",
"e+	c #A3B5C1",
"f+	c #AABCC8",
"g+	c #80929E",
"h+	c #253743",
"i+	c #ABBDC9",
"j+	c #A6B8C4",
"k+	c #9FB1BD",
"l+	c #B3C5D1",
"m+	c #576975",
"n+	c #4F616D",
"o+	c #B2C4D0",
"p+	c #A4B8C3",
"q+	c #A0B4BF",
"r+	c #A6BAC5",
"s+	c #A7B9C5",
"t+	c #566874",
"u+	c #4E606C",
"v+	c #B0C2CE",
"w+	c #495B67",
"x+	c #243642",
"y+	c #586A76",
"z+	c #A0B2BE",
"A+	c #A9BBC7",
"B+	c #7F919D",
"C+	c #9EB0BC",
"D+	c #556773",
"E+	c #4D5F6B",
"F+	c #AFC1CD",
"G+	c #485A66",
"H+	c #7E909C",
"I+	c #233541",
"J+	c #9DAFBB",
"K+	c #AEC0CC",
"L+	c #A8BAC6",
"M+	c #4C5E6A",
"N+	c #475965",
"O+	c #9CAEBA",
"P+	c #546672",
"Q+	c #ADBFCB",
"R+	c #4B5D69",
"S+	c #465864",
"T+	c #9BADB9",
"U+	c #9BAEBC",
"V+	c #556876",
"W+	c #4A5D6B",
"X+	c #9DB0BE",
"Y+	c #9EB1BF",
"Z+	c #7C8F9D",
"`+	c #192C3A",
" @	c #97AAB8",
".@	c #9CAFBD",
"+@	c #526573",
"@@	c #506371",
"#@	c #566977",
"$@	c #99ACBA",
"%@	c #798C9A",
"&@	c #9AADBB",
"                                                              . + @ # $ % & * = & - ; > , ' ) ! ~ * { ] ^ * & / ( _ : < [ } | 1 ",
"                                                              2 3 4 5 6 7 ] 8 9 ] 0 a b c d e f - 8 & g * 8 ] h i j k l m n o p ",
"                                                              a q r s t u ^ & = & v . w x y z A B ] { 8 ^ ] * / ( _ : < [ C D 1 ",
"                                                              2 q r s t u & * = & v . w x y E F B ] ^ 8 & ] ] G H _ : < [ C D I ",
"                                                              > J 4 K L ~ ] 8 9 ] 0 a M c d E F - g * N ] g 8 O P Q R S T U V W ",
"                                                              a q @ # $ 7 * ] X * B Y 2 Z `  .! ~ ] { 8 & ] * / H ..: +.[ C D I ",
"                                                              a + @ # $ % & * = & B a a @.#.E 0 $.* { ] ^ * & / ( _ : < [ C D I ",
"                                                              . + @ # $ % & * = & B a a @.#.z v $.* { ] ^ * & / ( _ : < [ C D I ",
"                                                              . + @ # $ % & * = ^ B a a %.d z v $.* { ] ^ * & / ( _ : < [ C D I ",
"                                                              . &.@ # t u ^ & O ^ $.. a %.d z v ~ & *.] { * & =.-._ : +.;.>.,.m ",
"                                                              ; &.r s t u ^ & O ^ $.. . %.d ) - ~ & *.* { & ^ =.-...'.+.;.>.,.m ",
"                                                              ; &.r s t u ^ & O { $.. . ).y ) - ~ & *.* { & ^ =.-...'.+.;.>.,.m ",
"                                                              ; c r s t !.^ ^ h { ~ . . ).y ) - 7 ^ ~.* *.& ^ {.]...'.+.^.>./.T ",
"                                                              ; c r s (.!.{ ^ h { ~ ; . ).y ) - 7 ^ ~.* *.& ^ {.]...'._.^.:.>.T ",
"                                                              Y x <.[.}.u & ^ h ^ ~ ; ; ).y ) v ~ ^ ~.& *.^ { {.].|.1.2.3.T >.m ",
"                                                              Y x <.[.}.!.& ^ h ^ ~ ; ; ).y ) - ~ ^ ~.& *.^ { {.].4.1.2.3.T >.5.",
"                                                              Y x 4 6.}.!.^ ^ G ^ 7 ; ; ).y ) - ~ { 7.& ~.^ { 8.9.4.1.2.3.T >.0.",
"                                                              a.x 4 6.b.!.^ { G ^ 7 Y ; b y ) - ~ { 7.^ ~.{ *.8.9.4.1.2.c.[ >.0.",
"                                                              a., 4 6.b.!.^ { G { 7 Y Y b '  .- 7 { 7.^ ~.{ *.8.9.d.e.f.c.[ :.0.",
"                                                              a., @ g.b.h.^ { / { % Y Y b '  .B 7 *.i.^ 7.{ *.j.k.d.e.f.c.[ :.l.",
"                                                              m., @ g.n.h.{ *./ { % a.Y b '  .B 7 *.i.{ 7.*.~.j.k.d.e.f.o.;.:.l.",
"                                                              m.Z @ g.n.h.{ *./ { % a.Y M '  .B 7 *.i.{ 7.*.~.j.k.d.e.f.o.;.p.l.",
"                                                              m.Z 4 g.n.q.*.~.=.*.u Y Y w ' z - !.*.i.^ 7.{ *.j.k.d.e.r.o.;.p.s.",
"                                                              m.Z 4 g.n.q.*.~.=.*.u Y Y w ' z - !.*.i.{ 7.*.~.j.k.d.t.r.o.;.u.s.",
"                                                              v.Z @ g.n.w.~.~.=.*.u Y Y w ` z - !.*.i.{ 7.*.~.j.k.d.t.r.x.^.u.3.",
"                                                              v.y.@ g.f w.~.7.{.~.!.Y Y w ` z - h.*.i.{ 7.*.~.z.k.A.t.r.x.^.u.3.",
"                                                              v.y.@ B.f w.~.7.{.~.!.a.a.> ` ) B h.~.C.{ i.~.~.z.D.A.t.E.x.^.u.3.",
"                                                              F.y.r B.f G.7.7.{.~.!.a.a.> H.) B h.~.C.*.i.~.7.z.D.A.I.E.J.K.L.c.",
"                                                              F.@.r B.F G.7.i.8.7.!.a.a.> H.) B q.~.C.*.i.~.7.z.D.M.I.E.J.K.L.c.",
"                                                              F.@.r B.F G.7.i.8.7.h.a.a.> H.) B q.~.N.*.i.~.7.O.n.M.I.E.J.K.L.c.",
"                                                              F.@.@ B.f G.7.i.8.7.h.h.h.$.H. .$.q.!.w.u q.!.h.P.f 4.t.Q.R.K.L.c.",
"                                                              F.@.@ B.f G.7.i.8.=.h.h.h.$.S. .$.q.!.w.u q.!.h.P.Z 4.t.Q.R.K.L.c.",
"                                                              F.@.@ B.F G.7.i.8.{.h.h.h.$.S. .$.w.!.w.u q.!.h.P.Z d.I.Q.R.K.L.c.",
"                                                              F.@.r B.F G.i.C.j.{.q.q.q.$.S. .~ w.h.G.u w.!.h.T.y.d.I.U.R.V.L.c.",
"                                                              W.%.r X.F P.i.C.j.{.q.q.q.~ S.Y.~ w.h.G.!.w.h.q.T.y.d.I.U.Z.V.`.o.",
"                                                              W.%.r X.A P.i.C.j.8.q.q.q.~  +Y.~ G.h.G.!.w.h.q.T.y.A..+U.Z.V.`.o.",
"                                                              W.%.++X.A P.i.C.z.8.w.q.w.~  +Y.7 G.q.P.!.G.h.q.@+@.A..+#+Z.$+`.o.",
"                                                              W.%.++X.A P.C.N.z.8.w.w.w.7  +%+7 G.q.P.!.G.h.q.@+@.A..+#+&+$+`.o.",
"                                                              *+).r X.A T.N.=+-+8.w.w.G.~ S. .~ P.q.P.h.G.q.w.@+@.d..+#+;+>+,+x.",
"                                                              *+).r X.A T.N.=+-+j.w.G.G.~ S. .~ P.q.P.h.G.q.w.@+@.d..+#+;+>+'+x.",
"                                                              *+).r X.! @+N.=+-+j.w.G.G.7 S. .~ P.w.T.h.P.q.w.)+%.A..+#+;+>+'+J.",
"                                                              !+).++~+! @+=+=+-+j.G.G.G.7 S. .7 P.w.T.q.P.w.G.)+%.A..+{+;+]+'+J.",
"                                                              !+b ++~+! @+=+O.^+j.G.G.P.7  +Y.7 T.w.T.q.P.w.G.)+%.A./+{+(+]+_+J.",
"                                                              !+b ++~+:+)+=+O.^+z.G.P.P.%  +Y.7 T.G.@+q.T.w.G.<+).M./+{+(+]+_+R.",
"                                                              [+b }+|+:+)+=+O.^+z.P.P.P.%  +Y.% T.G.@+w.T.G.P.<+).M./+1+(+2+_+R.",
"                                                              [+M }+|+:+)+P.O.3+=+P.P.P.%  +Y.% T.G.@+w.T.G.P.<+).M./+1+4+Z.>+R.",
"                                                              5+6+7+8+1+9+0+a+b+c+d+e+e+f+g+h+i+5+0+9+j+e+0+d+k+l+m+n+o+9+p+q+r+",
"                                                              5+6+7+8+l+9+d+e+5+d+d+e+e+f+g+h+i+5+d+9+j+5+0+d+k+o+m+n+6+9+d+9+s+",
"                                                              9+6+7+8+l+9+d+e+5+d+e+e+e+f+g+h+f+5+d+9+0+5+d+e+k+o+t+u+6+9+d+9+j+",
"                                                              9+v+7+w+l+9+d+e+5+d+e+e+5+f+g+x+f+9+d+9+0+5+d+e+k+o+t+u+6+9+d+9+j+",
"                                                              9+v+y+w+l+z+e+5+9+e+e+5+5+A+B+x+f+9+d+z+0+9+d+e+C+o+t+u+6+z+d+z+j+",
"                                                              z+v+y+w+o+z+e+5+9+e+5+5+5+A+B+x+A+9+e+z+d+9+e+5+C+6+D+E+v+z+e+z+0+",
"                                                              z+F+y+w+o+z+e+5+9+e+5+5+5+A+B+x+A+9+e+z+d+9+e+5+C+6+D+E+v+z+e+z+0+",
"                                                              z+F+y+G+o+z+e+5+9+e+5+5+9+A+H+I+A+z+e+z+d+9+e+5+C+6+D+E+v+z+e+z+0+",
"                                                              z+F+7+G+v+C+5+5+9+5+5+9+9+A+g+h+f+z+5+k+d+z+e+5+J+v+D+E+F+k+5+k+0+",
"                                                              k+F+y+G+v+C+5+5+z+5+5+9+z+A+g+h+f+z+5+k+e+z+5+9+J+v+D+E+F+C+5+k+0+",
"                                                              k+K+y+G+v+J+5+5+z+5+9+z+z+L+g+h+A+k+5+k+e+z+5+9+J+v+D+M+F+C+9+C+d+",
"                                                              k+K+y+N+F+J+5+9+z+9+9+z+z+L+B+h+A+k+5+k+e+z+5+9+O+v+P+M+K+C+9+C+d+",
"                                                              C+K+m+N+F+J+9+9+z+9+9+z+k+L+B+x+A+k+9+C+e+k+9+9+O+F+P+M+K+C+9+C+d+",
"                                                              C+Q+m+N+F+O+9+9+k+9+z+k+k+s+B+x+L+C+9+C+5+k+9+z+O+F+P+R+K+J+z+J+d+",
"                                                              C+Q+m+S+K+O+9+z+k+z+z+k+k+s+H+x+L+C+9+C+5+k+9+z+O+F+k R+Q+J+z+J+e+",
"                                                              C+Q+m+S+K+O+z+z+k+z+z+k+k+s+H+x+L+C+9+J+5+k+9+z+T+F+k R+Q+J+z+J+e+",
"                                                              U+% V+W+7 X+)+U+T.)+Y+X+)+~ Z+`+h. @.@.@@+U+Y+)+.@$.+@@@!.X+.@)+Y+",
"                                                              X+~ #@W+7 Y+T..@<+$@P.$@X+)+%@E 7 .@Y+Y+T.X+<+@+X+B +@@@u <+)+T.&@"};
