/* XPM */
static char *result[] = {
/* columns rows colors chars-per-pixel */
"64 64 137 2 ",
"   c #29778C",
".  c #27788D",
"X  c #29798E",
"o  c #2A7D92",
"O  c #2B8196",
"+  c #2B839C",
"@  c #2B899E",
"#  c #30889F",
"$  c #2B86A1",
"%  c #2D8CA4",
"&  c #2E8FA8",
"*  c #318DA6",
"=  c #318FA8",
"-  c #2C91A7",
";  c #2E93AA",
":  c #2D99AE",
">  c #3293AD",
",  c #3298AF",
"<  c #2E9DB1",
"1  c #3396B1",
"2  c #349BB3",
"3  c #389DB7",
"4  c #369FB9",
"5  c #399EB9",
"6  c #2EA3B5",
"7  c #2EA6B8",
"8  c #2EACBC",
"9  c #32A1B6",
"0  c #34A4BB",
"q  c #3AA2BD",
"w  c #33AABD",
"e  c #38AEBC",
"r  c #2FB1BF",
"t  c #34B0BF",
"y  c #2FAFCC",
"u  c #36A6C1",
"i  c #3BA6C2",
"p  c #35ABC4",
"a  c #3BAAC5",
"s  c #33AECA",
"d  c #3BADC9",
"f  c #2EB2C1",
"g  c #2FB0CD",
"h  c #35B2C4",
"j  c #3AB3C5",
"k  c #32BBC6",
"l  c #3BB9C7",
"z  c #35B2CC",
"x  c #3BB2CC",
"c  c #36BACD",
"v  c #3BBBCC",
"b  c #37B7D0",
"n  c #3EB7D0",
"m  c #36BBD2",
"M  c #3DBBD2",
"N  c #40B9C5",
"B  c #42BCCB",
"V  c #4BBECA",
"C  c #41BED3",
"Z  c #36C0CC",
"A  c #3AC1CD",
"S  c #3BC3D5",
"D  c #3ECAD7",
"F  c #3BC5D9",
"G  c #3CCBDB",
"H  c #3DD0E2",
"J  c #44C1CE",
"K  c #42C3D4",
"L  c #4CC5D3",
"P  c #47CCD6",
"I  c #4BCAD4",
"U  c #42C5DA",
"Y  c #43CCDC",
"T  c #50C3D3",
"R  c #51CDD6",
"E  c #59CCD6",
"W  c #54CEDD",
"Q  c #5ACFD8",
"!  c #44D1DE",
"~  c #4DD2DC",
"^  c #55D2DC",
"/  c #5CD6DE",
"(  c #5AD8DF",
")  c #63CBD5",
"_  c #61CFD9",
"`  c #65D2DD",
"'  c #4CD4E1",
"]  c #49D9E2",
"[  c #48DBE8",
"{  c #56D6E4",
"}  c #53DCE6",
"|  c #5CDBE3",
" . c #62DBE4",
".. c #6BDBE3",
"X. c #76DCE6",
"o. c #79D9E1",
"O. c #53E1E7",
"+. c #54E3EB",
"@. c #59E7ED",
"#. c #65E1E6",
"$. c #66E0E8",
"%. c #6EEBEF",
"&. c #73E4EB",
"*. c #7CE3EA",
"=. c #7AE9EB",
"-. c #65EFF3",
";. c #74EEF1",
":. c #6BF3F6",
">. c #6BF5F8",
",. c #77F2F4",
"<. c #89DAE0",
"1. c #82E2E5",
"2. c #83E4EB",
"3. c #8BE7EB",
"4. c #84E9ED",
"5. c #8BEDEF",
"6. c #92E7EB",
"7. c #9DEAED",
"8. c #80EDF0",
"9. c #8BEEF1",
"0. c #80F0F3",
"q. c #8FF1F4",
"w. c #8FF6F9",
"e. c #93F3F6",
"r. c #9DF4F6",
"t. c #9BF7F9",
"y. c #A2E2E5",
"u. c #A4EFF2",
"i. c #A8EEF4",
"p. c #ACF5F5",
"a. c #B0F3F0",
"s. c #BCF4F4",
"d. c #B1F7F9",
"f. c #B1F8FA",
"g. c #C4FAF7",
"h. c #C7F7F8",
"j. c #CCFBF9",
/* pixels */
"a a d d d x n M M M F C M M M n d d d d d d d d d d d d d d d d g d g d g d n g d z z z z z b d g g b g g g g b g g g g g g g g ",
"a a a d d x n M F ! ' ! ! U M n n d n d d d d i d i d d d d d d d d n d d d g n z z z z d z g g g b g d g s z g b g g g g g g g ",
"d a a d d n C W X.*.4. .[ U M M n d d d d i d d d d d d d d d d g d d d d g d n z z z z b b g d g g g g y s s s g g g g s g s s ",
"a a a d d d C ..i.f.f.9.| ! F M n n d d d d d d d d d d d d d d d d g d n d n g n g n g s d d g b d g d y s s s d g s d g s g s ",
"a a d d d B C  .i.d.g.i.&.' U C d d d d d i d d d i i d d d a d d d d d n n g n b g b b g d s s d s s s s s s s a y u s y s s s ",
"a a a a d n C U X.8.p.d.*.' U n T d d n d i T d d i d d d d a d d d g n g n n g F m b b b d s s s d s s s s s s y y y y y y y a ",
"a i a a d x C C W { 2.4. .U M n d d d d d d d i d d i i d d d d d d d d n n n F F F M b d g s d s s s s s s s s y s s s y u s y ",
"a N N i d d B B C U W W U C C n i T d d d d d d d d d d d d d d d d d d g g b F H F b g d d s d d s d s d s s s s s s y y y s s ",
"i i i T d d a T M M M M C n n d T i d d d d d i d d d d d d d d d d d d d d g U U F g d s s s s p s p s p p s s a y d y y s s s ",
"i i i i d a a d n n n n n n B d d d d i a a d a i i d d d i d d d d d d d y g n b g d g s a a d s p s s p s s s y y g g s s u s ",
"i i d d d d d d d d n B d d d d i i d d d d i a i d a a a i d a d a a d d d d d d g d d i y a a d p f p s s z z s g g b y s s s ",
"i i i a i i d d d d d d d N a N T i d a d i d i d i a a i d a a a a a i a a a y d d d d s a s y u s p p s s z z g b b g s s s s ",
"i i T i i i i d d d d d a d a d T i i a d i i a i a i a i i a a a a a i a a y a d d s a a u u u s p p s h z c m m S m m b g s s ",
"i i i i i T i i i a a d a a a a i d i i i i d a a a a i i V a i a a y i a a i i a a i s a u a a u u p p p z b S G G H F b b z s ",
"i i i i i i a i i d a a i a a a a i a a i i i a i a i a i i i i i i a i i i y a a a u u u u u y u u s a s z m ] +.@.+.H S c h s ",
"i i i i i i i i i i i a i a i i i i i i a i i i i a a i i i i i i i i i i i i i a u a u s i u u p s u u p c S } >.>.-.[ F c z f ",
"i i i i i i i i i i V q i i i ) 5 5 i i i i i i i i i i i i i i u i u i i p i u u i u a u u u u u u p p p j S ~ -.:.:.O.D c h s ",
"5 i i i i i 5 i i i 5 i i i i i 5 5 i i i i i i i i i i i i i i i u i i i i a i u i i u u u u u u u p u p d z D ] O.-.] F z h p ",
"i i 5 i i i i i q i i i i i i i i i i i i i i i i i i i i i i i u i i p u a i p a u u u i u u u u u u u p p z m A D ! F c z p 8 ",
"5 i i 5 5 i 5 i i i i i i i i i i i 5 i i i i i 5 i i i i i i 5 i i u i i p a u a a p a u u 0 p u u u u u p p s c c c c z p p w ",
"5 i 5 i 5 5 i i i i 5 5 i i 5 3 i i i i i 5 i i 5 i i i i i 5 i i i u i p i p p a p d p q p q q 0 u 4 u u u p f s s f y p u u 7 ",
"5 5 i 5 i i 5 i i q V 5 i i q V i 5 i 5 5 i 5 5 i 5 5 i 5 5 i i q u i u u p a j z p j p p p p q u 0 u u u u u u w p u u w w 7 0 ",
"i 5 5 i 5 i i i 5 5 q i q q i q 5 i i i 5 i i 5 5 i 5 i i 5 5 i q q q u u a d C B v v d j p p q u 4 u 4 0 0 u u 0 u u 4 7 0 0 4 ",
"5 i i 5 i 5 i 5 V q q q i q q q i 5 i 5 i 5 5 i 5 i 5 5 i 5 i 5 0 q q p p a C _ ..{ K v j j p q 4 u 4 u 0 0 4 0 0 0 u 0 4 7 < 4 ",
"5 i 5 i i 5 i 5 i i i 5 3 5 q q 5 i 5 5 5 5 5 i 5 5 5 i 5 5 5 5 q q q q d h T 2.e.8.| S v p p q u u 0 0 0 0 4 4 9 0 0 4 4 4 < 2 ",
"i 5 5 5 5 5 5 i 5 i 5 i 3 V q q i 5 5 i 5 5 5 5 5 i 5 5 5 3 5 5 q 0 w q p z L *.t.e.*.Y v v p w 4 4 < 4 4 4 4 4 4 4 2 2 < < 2 2 ",
"5 5 5 i 5 5 5 i 5 5 5 5 5 5 q 5 5 5 5 5 5 5 5 3 5 5 5 5 5 3 5 5 0 9 q q a j S  .e.r.&.Y v j p 0 4 4 4 4 < 4 4 4 2 2 2 2 < 1 1 2 ",
"i i 5 5 i 5 5 5 5 5 5 5 5 5 5 5 5 i 5 5 5 5 5 3 5 5 5 5 5 5 5 5 4 q 0 0 p h v ^ 4.5. .D c p q 0 4 4 2 4 2 2 1 4 2 < < 2 2 1 1 1 ",
"5 i 5 i 5 5 5 5 5 5 5 5 5 5 3 5 5 5 3 3 5 5 3 3 5 5 3 3 3 3 3 3 4 4 9 0 w a z J ^  .W v z p u 4 < 4 2 2 1 4 1 4 1 > 1 1 1 1 1 1 ",
"i 5 5 5 5 5 5 5 5 5 5 5 5 3 3 3 5 5 3 3 3 5 3 3 5 5 3 3 3 3 3 3 4 4 4 9 0 0 h z v B v j p u 7 4 4 2 2 2 4 1 1 1 1 1 1 1 1 1 ; ; ",
"5 5 5 5 5 5 5 5 5 5 5 5 3 3 3 3 5 5 3 3 3 5 3 3 5 3 3 3 3 3 3 5 2 4 3 4 9 0 w e h h h p w 0 4 2 2 2 1 1 1 1 1 1 1 1 1 1 1 1 > 1 ",
"5 i 5 5 5 5 5 5 5 5 5 5 3 3 3 3 5 5 3 3 3 = 3 3 3 3 = 5 = 5 = 5 2 2 2 3 9 0 9 0 0 w 0 0 0 9 4 2 2 2 2 1 1 1 1 > 1 > > > > ; ; ; ",
"q q q 3 2 3 3 3 3 3 3 3 1 3 3 1 1 3 1 3 3 1 3 2 1 3 3 1 1 1 3 1 2 2 2 2 4 2 4 < 3 3 9 9 9 2 3 1 1 2 1 1 1 1 = 1 = 1 > = 1 > > > ",
"0 9 3 9 2 3 2 3 2 2 3 3 3 1 2 3 1 1 3 1 1 2 2 2 3 3 1 1 3 1 1 1 1 1 1 2 2 2 2 2 2 3 2 2 9 , 2 2 2 1 1 1 1 > > > = > > > = > > > ",
"0 3 3 3 2 3 3 2 2 1 3 1 1 1 1 1 3 3 2 2 3 2 2 2 1 1 3 1 1 1 1 > , 1 1 1 1 1 , 1 1 , 1 3 , 2 2 > 1 1 = 1 = 1 > > 1 > = > > > = = ",
"9 3 3 3 3 2 2 3 3 1 1 3 1 3 3 2 1 2 2 2 2 3 2 2 1 3 1 1 1 > 1 > > 1 > 1 , , 1 : 1 1 1 1 , , , , > > > = > > = > = > > * = = > = ",
"9 4 2 2 3 2 1 1 1 3 1 3 2 2 1 1 1 1 1 3 2 2 2 2 1 1 1 1 1 1 ; > 1 1 > 1 > 1 > 1 1 1 1 > > , > > = > > > = > = > = = = = = > = = ",
"3 4 2 2 3 1 1 2 1 1 3 1 2 2 2 1 1 2 2 2 < 2 2 1 1 1 1 1 > 1 1 1 > > > > > = = > > > > > > > > > > = > = = = = = = = = = = = = = ",
"2 2 2 2 2 1 1 1 1 1 2 2 2 2 2 2 1 1 2 1 2 2 < 2 2 1 1 1 , > > 1 1 > > > > > > > > > > > > > > > = > = = = * * = = = = = = = = = ",
"< 2 2 1 3 1 1 1 2 1 > 1 , , , , 2 2 2 2 < 2 2 2 2 2 2 1 1 > 1 > > > = > = > = = = > = = = = * * = = = = = = * * = = = = = * * * ",
"1 1 1 1 1 1 1 > > , , , 2 , , , 2 2 2 9 2 9 9 2 4 2 < 2 1 : > > > > = = = = = = = > = = = = = > = * * * * * * * = = * * * * * * ",
"1 1 1 1 > 1 1 ; > , > 1 , , , 2 4 < 2 9 0 0 w 0 9 9 4 < 2 > > ; = > = = = = = = = = = = * * * * * * * * * * * * * * * * * * * * ",
", , > > > 1 1 ; > > > , , , 2 2 < 9 9 w e t w w e w 9 < , : > > = = > = = $ * * * * * * * & * % * = * * * * * * * * * * * * * * ",
"> > > 1 1 > ; 1 , > > , 1 2 , 2 2 6 w j B v v c h w 0 6 2 , ; ; = = = = * * * = * * * = * & * = * * * * * * % * * * * * * * # * ",
"1 > ; 1 > > 1 > > > , , , , , 9 9 9 e ) o...E K c h e 0 2 , 1 ; & & * = * $ * $ * * % & = & * & = - - = * * * * * * * * * * * # ",
"; , > 1 > > & 1 * > > > : , , : 9 w V 7.s.s.7...P l p 0 4 2 ; = > & & * * = * = * * % & & % ; & = = = - - * * - # # * * # * # * ",
"1 : > > 1 ; 1 = > > > > > ; , , 9 w N y.g.j.s.3.^ A f 7 < < ; ; = = & * * * $ = o = = & & = & & ; - = - * * * * * # # # # # # # ",
"1 , > 1 1 > > ; > * - ; ; , > , 9 7 l <.p.g.g.7.{ A g u 4 : 1 & = = & * $ * * $ = = & & & & & ; ; ; ; - * * * * * # # # # O O # ",
"2 , , > > ; ; ; & & & & > ; : , < w h E X.a.h.u./ A j 0 < , ; > = = % % % % % % % % - - - ; : : < : : - - * - % * @ $ * # # o o ",
"7 4 < , 1 ; ; ; & & & & & ; ; , < 9 w c R 1.u.6.E k p 0 2 : ; = = = % % % % % % % - - - : : 6 7 7 6 < , * - - = * # $ $ o $ $ o ",
"w 6 7 1 : > ; ; & & % = = ; ; > < 2 7 f v R ` _ J h 8 6 < > ; * % % % % % % % - % - - : < e 8 r t e 7 < : > % % # $ # o $ o # o ",
"Z g 7 4 1 ; & & & & = & % - > > , < 2 u e j l l t w 6 : : ; > % % % % % @ % @ - - - : < 6 t P ^ R Z t 7 , ; = % @ @ + # o # o # ",
"$.L w 6 , ; & & & % % & % > % > ; : : < 6 6 8 8 9 6 < : > ; = % % % % @ @ - @ - - - : < e Q =.0.=.P k 7 , : - % = o * o * * o o ",
"q.Q p 9 : ; & & & % % & % - - - ; ; : : : 6 6 : 9 : : ; ; - % % = % $ % @ - - - : : < 6 e Q =.w.e.#.k e 9 - % % = = o * o o o * ",
"=.I t 6 : ; & & % % & $ $ % % - - - - : : : : : : ; ; * % % % % % $ $ @ @ - - - : : 6 7 r J ( %.0.` A e , - - % o o o o o o o o ",
"^ l w < : * & % % $ $ $ $ % % % - - - - - ; - - - - ; - % % % $ $ $ @ $ @ @ - : < 6 8 r r k Z P ^ I t 6 : - % @ o > * o * o * o ",
"g y y : 1 & $ $ $ $ $ $ $ $ & $ - $ - - - - - - - - - - $ $ $ + + @ $ $ $ % - : 6 r k Z k r r r r r 6 : ; % * $ = o o o o o o o ",
"y : & : & & $ $ $ $ $ % $ $ $ & $ - $ - - - - - $ $ $ $ $ + + + + + + $ $ % - : r Z ~ #.R r 8 7 6 6 : : % % % $ > o * o = o o o ",
"& & & & $ $ $ $ $ $ o o o & $ $ $ $ $ $ $ @ $ - - $ $ @ $ + + + + $ $ $ $ - - : r R %.;.( r 7 6 : : - - % @ $ $ o o o o o = o o ",
"; $ & $ & $ $ $ $ $ $ $ $ o $ $ $ $ $ $ $ $ $ $ $ $ + + + + + + o $ + $ $ - - : r ( ,.;.R r 6 : : - % % @ @ $ $ o = o * o o o o ",
"$ & $ $ $ $ $ $ $ o o $ o o & o + $ + + @ @ $ $ $ + + + + + O + O + + @ $ @ - : 8 Z O.( k 6 : - - @ @ @ % $ o o o o o o o o o o ",
"& $ $ $ $ $ $ . $ $ $ $ & o > o + $ + $ @ $ @ $ $ + + + + + . + O + + + $ $ $ - : f Z N 7 : - - @ @ @ O o o o o o   o o o o   o ",
"$ $ $ $ $ $ $ $ $ o $ $ o & o o + + @ $ $ - @ @ + + + + + + O O + O + + + @ $ - - : : 6 - - @ @ O O O O o X X         X   o o   ",
"$ $ $ o $ $ o o $ $ o o & o o & + $ + $ @ - - - @ + + + . + O O O O O + + + @ @ @ - @ @ @ @ O O O O . .           X X X     o   "
};
