/* XPM */
static char *result[] = {
/* columns rows colors chars-per-pixel */
"64 64 209 2 ",
"   c #143525",
".  c #193627",
"X  c #143B25",
"o  c #14342C",
"O  c #1A362C",
"+  c #153D2B",
"@  c #193D2C",
"#  c #1B3630",
"$  c #173C31",
"%  c #1B3C32",
"&  c #124024",
"*  c #16432C",
"=  c #19432E",
"-  c #154B2C",
";  c #1B4B2D",
":  c #165027",
">  c #16532B",
",  c #1A542D",
"<  c #1A5C2D",
"1  c #174330",
"2  c #1B4432",
"3  c #164C33",
"4  c #1C4C34",
"5  c #1E4739",
"6  c #1C4C39",
"7  c #165231",
"8  c #1B5433",
"9  c #175E31",
"0  c #1B5B33",
"q  c #1C543A",
"w  c #1C5C3A",
"e  c #21472F",
"r  c #204E2F",
"t  c #214735",
"y  c #214B35",
"u  c #214D39",
"i  c #215435",
"p  c #215B36",
"a  c #20513B",
"s  c #225D3A",
"d  c #1B632F",
"f  c #17682D",
"g  c #1A692F",
"h  c #1F772F",
"j  c #1C7C2F",
"k  c #1D6333",
"l  c #1E6B33",
"z  c #1D633C",
"x  c #1B683A",
"c  c #1F7434",
"v  c #1F7B34",
"b  c #1E733A",
"n  c #1D7D3B",
"m  c #21772E",
"M  c #227A2D",
"N  c #206434",
"B  c #296737",
"V  c #226C36",
"C  c #23643C",
"Z  c #2C653B",
"A  c #236D3B",
"S  c #2A6D3D",
"D  c #227435",
"F  c #227A34",
"G  c #287C36",
"H  c #24733B",
"J  c #29743C",
"K  c #247B3C",
"L  c #297C3E",
"P  c #1D5443",
"I  c #1E5A4D",
"U  c #225B44",
"Y  c #295F43",
"T  c #1E7A40",
"R  c #236342",
"E  c #246C43",
"W  c #2A6B42",
"Q  c #247442",
"!  c #297444",
"~  c #247C42",
"^  c #297B43",
"/  c #2A754A",
"(  c #257D4C",
")  c #2B7C4B",
"_  c #317F45",
"`  c #317648",
"'  c #307D4F",
"]  c #216755",
"[  c #2A7556",
"{  c #1F853C",
"}  c #24833D",
"|  c #29823D",
" . c #258B3E",
".. c #298B3E",
"X. c #26933E",
"o. c #2A913E",
"O. c #2FA23F",
"+. c #1F8042",
"@. c #258342",
"#. c #2A8443",
"$. c #268B44",
"%. c #2B8B44",
"&. c #27854A",
"*. c #2C844B",
"=. c #268C49",
"-. c #2D8C4B",
";. c #308D45",
":. c #32824B",
">. c #328C4C",
",. c #269344",
"<. c #2C9345",
"1. c #279A40",
"2. c #2C9B44",
"3. c #2D934A",
"4. c #269D4D",
"5. c #2D9B4B",
"6. c #329346",
"7. c #319C46",
"8. c #31944B",
"9. c #3B924E",
"0. c #329C4C",
"q. c #399D4E",
"w. c #2D8452",
"e. c #2D8D52",
"r. c #2F855A",
"t. c #318752",
"y. c #318E53",
"u. c #398D57",
"i. c #308E59",
"p. c #2E9452",
"a. c #279C53",
"s. c #2D9C52",
"d. c #2F935A",
"f. c #2F9D59",
"g. c #329454",
"h. c #339B54",
"j. c #399D53",
"k. c #33955A",
"l. c #39935A",
"z. c #339C5A",
"x. c #399D5C",
"c. c #2EA445",
"v. c #2EAC47",
"b. c #2EA34A",
"n. c #31A445",
"m. c #31A946",
"M. c #39AD47",
"N. c #33A44C",
"B. c #39A34D",
"V. c #34AB4C",
"C. c #3AAC4E",
"Z. c #35B14E",
"A. c #38B04E",
"S. c #2EA351",
"D. c #2FA953",
"F. c #2FA05A",
"G. c #34A453",
"H. c #3AA453",
"J. c #35AA53",
"K. c #3BAC54",
"L. c #34A35C",
"P. c #39A55C",
"I. c #35AA5C",
"U. c #3BAC5A",
"Y. c #35B252",
"T. c #3BB355",
"R. c #3DB956",
"E. c #37B25B",
"W. c #3CB45A",
"Q. c #3EBA59",
"!. c #2E986B",
"~. c #3E9F65",
"^. c #35A561",
"/. c #39A662",
"(. c #36AA62",
"). c #3AAC63",
"_. c #3AAF68",
"`. c #3DB265",
"'. c #3FBB60",
"]. c #3DB46A",
"[. c #3EB86C",
"{. c #3DB572",
"}. c #3DBA76",
"|. c #40A356",
" X c #40AD56",
".X c #40A75A",
"XX c #41AC5A",
"oX c #41B255",
"OX c #43B55B",
"+X c #43BA5C",
"@X c #49B95D",
"#X c #40AC63",
"$X c #43B462",
"%X c #46BB60",
"&X c #49BB61",
"*X c #41B56B",
"=X c #42B86D",
"-X c #37A382",
";X c #3EB582",
":X c #44BD9E",
">X c #42B6A5",
",X c #42C088",
"<X c #47C19D",
"1X c #49C39D",
"2X c #4CC8A3",
"3X c #52CDAE",
"4X c #5EDFCD",
"5X c #60DCDD",
"6X c #64E1D8",
/* pixels */
"#.K @.| #.#.#.%.%...3.G.c.V.m.V.m.V.c.V.m.c.c.N.N.N.N.N.V.J.H.1.2.K.W.OXW.H.<.<.0.U.<.2.6.$. . . .@.~ H A N s s N C A ! [ ] I I ",
"=.-.@.@...o.<.1.7.2.5.V.c.c.V.m.m.V.V.m.c.V.m.N.m.v.b.V.V.N.J.X.2.OXQ.Q.K.7.1.H.K.K.n.H.H.,.5.B.5.H C w N C ! ! J ^ :.-./ U P U ",
"!.-X!.s.2.7.n.n.n.n.V.V.v.b.V.b.m.V.m.n.c.m.m.m.b.V.v.V.V.b.K.2.G.$XoXT.J.1.7.OX+XY.T.+XoXN.K.T.B.H w J <.<.6.3.<.8.-.E z U U ] ",
">X5X<X(.O.O.O.O.n.m.m.m.m.m.V.m.m.V.B.n.n.n.m.V.b.N.b.B.T.2.J.T.W.%XOXT.T.V.U.+XW.V.R.oXV.B.T.T.T.7.X.B.T.B.b.b.2.5.,.#.#.) ) r.",
":X4X,X(.N.b.c.c.c.V.m.V.V.v.V.V.Z.A.V.m.V.M.A.V.V.2.2.2.T.B.J.+X+X+X+XQ.+XQ.Q.Q.C.Y.+XT.N.K.W.T.+XW.T.R.J.N.B.H.0.<.%.L Q ! E ( ",
"{.,XI.J.N.b.c.b.m.m.m.V.V.m.v.Z.Z.T.V.m.Y.A.C.V.T.N.X.1.T.W.W.+XQ.Q.+X'.+XQ.Q.T.R.Q.+XT.T.@X+X+X+X+X+XQ.V.V.W.U.3.%.^ Q A A Q ~ ",
"Y.J.V.J.I.D.v.v.V.m.m.V.Z.V.Z.Z.T.Y.Z.V.T.C.V.V.T.T.B.c.J.+XT.Q.Q.+X'.Q.'.Q.Q.Q.Q.+XY.Y.R.T.T.OXOXQ.+XR.R.R.K.b.2.<.0.6.<.-.-.$.",
"Y.B.L.}.<X;XD.v.V.Z.V.V.A.V.v.Z.T.Z.A.Y.C.V.V.V.N.T.W.Y.R.+XT.Q.Q.Q.'.+X+XQ.%XQ.Q.R.Y.Y.Q.T.E.Q.Q.Q.+XQ.T.J.V.B.K.T.T.b.2.<.%.@.",
"N.0.^.2X6X3X].Y.Z.Z.V.Z.V.V.V.V.A.Z.A.A.V.V.J.V.m.V.R.Q.Q.+X+XQ.+XQ.+XR.+X+XT.T.K.R.Q.Q.Q.%X'.Q.Q.R.Q.T.Z.V.Y.T.T.W.Y.H.5.<.@.%.",
"n.N.^.2X4X1X`.V.Z.V.m.V.V.c.m.A.T.Z.Z.V.V.V.V.K.Y.Y.R.R.+XQ.'.+X'.R.R.R.T.OXT.V.V.K.Q.+XQ.Q.Q.Q.Q.R.+XR.T.T.R.J.J.H.S.h.3.%.3.3.",
"2.7.G.].,X}.W.V.M.Z.v.Z.7.7.B.Z.V.J.V.b.V.A.T.W.'.+XQ.R.Q.Q.Q.Q.W.Y.R.T.W.W.J.V.Y.W.Q.+XQ.R.W.+XQ.R.Y.T.V.0.<. . .$.3.7.<.%.6.<.",
"7.2.m.A.R.Y.T.Z.Z.A.Z.m.o.1.V.J.G.N.2.2.G.J.OX+X%X%XR.Q.Q.R.R.R.K.J.W.Y.J.V.b.J.W.W.Y.J.J.N.N.V.K.J.H.3.#.} K %.%.<.H.G.N.N.5.6.",
"7.o.b.C.M.M.T.V.Z.V.V.7.o.7.H.G.<.{ } 3.s.K.K.OXW.+XQ.Q.R.R.R.T.V.T.J.b.2.V.Y.OXJ.J.B.<.,.%.%. .<.6.6.K }  .<.B.B.V.V.H.N.5.$.#.",
"o.7.G.oXC.K.T.Z.Z.c.B.B.<.7.5.,.$.K K @.3.U.3.H.K.K.W.Q.R.R.R.R.A.OXJ.N.N.K.K.U.J.B.n.3.6.<.;.#.<.,.7.7.N.G.G.b.b.5.2.2.%.| K ( ",
"..6.C.oXC.@X XC.n.H.W.H.7.B.<.} T &.~ ~ *.-.n 0.K.B.G.Y.oXR.R.+XR.T.B.N.j.q.,.h.J.T.U.J.K.G.P.G.G.J.K.J.G.7.2.3.$.$.8.6.%.| K ( ",
"6.6.C.W.V.@XK.8.,.XXU.K.OXK.7.#.n T n K ~ ~ K x.XXG.0.n.+XR.A.Z.A.V.b.7.<.8.-.>.N.J.V.J.J.V.Y.Y.Y.R.T.K.N.0.h.7.3.1.<.3.<.<...&.",
"o.7.C.|.C.$X|.%.J.@XOXU.K.K.H.K.z.-.K ~ >.*.~ h.G.c.7.B.K.T.T.V.V.J.b.N.2.b.J.J.J.G.G.h.3.7.J.I.Y.E.T.W.T.J.J.b.G.N.5.3.<.<.<.3.",
"7.6.H.q.B.XX0.7.OX@X+X@XoXK. XB.H.q.} -.0.K x ^ 8.0.4.0.b.B.Y.V.J.V.H.K.I.G.I.P.I.W.U.G.0.n.7.N.b.b.b.V.J.J.B.J.B.0.3.;.3.<.7.3.",
"B.7.|.q.K.oXB.|.@X+X@X$XOXB.7.6.;.q.6.K.K.%.K b K j.s.b.N.J.J.J.J.G.H.J.G.s.8.g.G.L.I.G.G.J.B.2.5.N.N.b.2.2.n.B.5.<.%.%...%.%.%.",
" X6.H.H.K.+XOX@X@X+X@X.X9.:.L :.>.>.7.8.H.H.7.,.,.0.7.b.G.J.U.J.I.G.h.5.P.P.h.8.s.s.L.s.2.b.S.b.H.G.0.,.$.,.<.2.2.<.3.,.%.} K K ",
" X6.G.B.OX%X@X@X@X+XW.8.J ! *.*.#.q.@.K -.N.J.Z.J.K.B.N.5.0.H.U.G.h.-.-.G.).I.S.H.G.L.F.5.b.S.a.5.$.} K K  .$.<.3.<.,.3.3.%.%.*.",
"K.%.G.B.+X%X@X@X@X+X'.j.| %.q.0.U.0.q.%.@.8.V.Z.J.G.J.2.<.3.z.#XI.P.L.5.h.L.J.I.S.G.G.F.s.s.g.@.K H J H b A K %.%.<.%.%.,.<.<.3.",
"K.0.U.OX+X+X%X+X+X@X$XOXXX.X0.B.K.@X+XP.3.3.5.b.0.5.G.G.N.G.P.).).I.I.I.G.h.s.5.5.S.S.4.a.S.g.~ V H H H V A H b K } @.,.%.<.6.<.",
"+XT.OX@X@X&X+XW.+X+X&XXXj.0.H.XX@X+XK.H.H.7.4.I.G.0.I.J.J.I.U.U.`.).W.`.G.3.s.h.a.4.5.h.s.s.3.K H ~ T K H C z k V H K K @.%.%.<.",
"&X&X@X@X&X+XoXOX+X@XXX7.0.H.K.OXXXB.2.b.G.J.J.E.U.U.U.E.E.I.E.`.W.U.L.G.p.&.&.&.5.a.a.h.p.#.%.8.z.z.&.F H l p ; > l V H K H K @.",
"&X@X$X%X@XK.K.@X$XOXH.H.OXOXT.OXH.3.,.N.B.J.E.E.K.W.W.W.`.E.W.W.#XI.G.-.! z s w ( a.a.a.=.>.l.#X=X].3.K J H C , 8 V V J H A H H ",
"@X@X+X+XOXn.B.@X@XXX XXXK. XoXK.3.q.H.P.V.J.J.E.K.U.).`.W.E.W.I.H.l.#.E i y t y A p.f.G.L._.*X=X].`.z.H D H N y i N B V S H A A ",
"@X+X@X@XA.B.T.@XOX@XXXH.G.XX XH.B.H.XXH.G.N.G.I.U.I.U.W.I.W.E.G.y.! C 4 y t 4 8 Q f.L.).].[.{.=X*X*Xh.b k K H , > 9 Z H H S J H ",
"oXOX@XoXK.oX@X@X+XK.K.B.K.H.H.H.H.G.7.<.<.j.K.U.G.B.J.G.G.T.E.G.*.C 6 t t 6 R / l.].].*X=X=X[.*X*X].L.^ H =.&.d l *.J #.^ ^ ! L ",
"T.B.T.K.C.C. XoXOXXX|.K.OXK.j.q.>.3.-.D @.0.G.j.5.h.H.I.H.H.J.G.g.R 5 t q E k.).[.[.[.*X*X].).).*X].].p.&.=.~ D 5.K.6.7.q.~ K L ",
"C.2.B.V.C.B.V.C.N.0.q.j.j.q.;.;.q.H.8.K } <.j.3.,.H.G.G.H.H.H.G.u.C 2 2 6 / /.[.[.[.].[.*X`._.P.).].=X^.p.3.@.3.J.G.N.Y.H.#.^ <.",
"V.n.c.V.B.b.V.K.B.<.%.6.%.^ ^ 3.H.B.0.#.^ %.H.3.<.U.P.S.W.K.q.l.:.8 2 t u z ~.=X].[.[.].[.].].P.P.).]./.s.3.7.J.J.V.J.Z.B.<.0.U.",
"C.V.b.N.N.1.B.K.XX7...%.%.H K 3.j.7.q.;.K q.U.0.H.P.U.U.U.H.q.8.:.H S ) l.~.^.`.]._.).).]._.(./.x.z.L.L.4.<.0.Y.D.T.T.Y.K.J.I.G.",
"B.2.b.2.n.X.2.B.H.q.;.%.%.L K q.H.6.8.j.%.K.H.H.U.U.W.U.K.U.H.j.j.g.z.x.^.(.).U.).I.L.(./.).^.z.k.g.h.k.p.3.N.Y.Y.J.V.J.T.K.n.4.",
"b.1.1.2.7.o...7.G.7.%.%.%.#.%.6.j.#.<.G.H.T.OXK.K.K.K.J.W.OXU.0.8.q.u.) ) u./.z.L.L.L.L.L.L.^.k.y.y.p.g.-.s.J.Y.T.H.N.D.G.0.6.h.",
"n.2.X.,.H.H.2.6.7.%.K %.3.<.5.6.q.6.3.H.K.XXU.G.G.K.P.W.E.I.0.3.>.:.! Y R &.k.~.L.k.G.L.L.l.g.p.g.a.p.=.=.5.J.T.J.b.5.3.2.<.0.H.",
"B.X.o.o.7.K.K.h.H.7.%.%.,.8.0.8.q.0.0.0.U.K.K.J.J.G.I.K.U.H.N.H.G.-.C C / p.G.z.F.L.L.F.F.d.p.e.p.h.s.$.=.3.G.V.N.6.8.1.5.N.0.N.",
"K.V.B.B.B.H.OXOXW.H.;.;.-.q.3.6.0.j.0.0.G.H.H.J.U.P.I.G.G.J.P.G.z.&.p C ) z.z.L.L.^.L.(.(.k.w.w.y.g.3.,.$.-.5.2.2.%.;.,.5.h.h.2.",
"oXK.B.7.7.7.7.B.H.H.q.@.v 3.j.0.0.j.0.h.j.b.N.N.H.I.G.J.G.G.z.*.^ ) ) y.g.L.z.~.~.z.z.g.k.) ! E ~ @.=.+.$.=.,.4.<. .}  .$.5.5.N.",
"K.T.K.H.H.7.%.%.6.7.3.6.%.3.5.3.0.7.5.B.0.S.0.G.H.J.J.S.5.q.#.l C W :.>.g.z.d.a.g.g.-.&.( A w w k x T +.@.&.=.,.,.,.{ { } %.6.<.",
" XC. Xq.q.8.6.%.%.8.8.j.6.7.5.0.0.0.0.j.0.0.N.G.J.K.J.G.G.G.h.5.h.p.-.-.*.w.i.k.k.e.e.&.~ w 8 0 9 k T x l H K } $.,.,.F v }  . .",
"B.q.6...K L >.q.3.j.0.6.h.8.6.7.5.h.0.7.b.0.0.j.G.G.j.s.h.G.J.`.`.(.E.J.G.w.i.z.x.h.-.&.H w 7 z z 9 x x d l D F } =.$.F F F } v ",
"| ....L V l L ;.7.7.8.5.3.6.6.3.5.5.q.0.0.5.0.0.N.0.;...0.G.S.S.G.h.p.p.g.k.^.I.(.^.k.*.E 7 7 0 w k 9 9 k l V M v } { F M } M v ",
"} } K D N < f } 5.6.8.3.5.3.8.0.h.3.&.#.8.h.0.n.b.B.3.#.;.h.0.3.8.:.#.*.) ' y.z.z.p.) W q 3 * 8 z k > > x l d l v v m h h M F F ",
"| | c l < < l ..3.%.%.%.3.3.<.6.5.-.#.K y.8.5.0.0.B.h.8.| %.8.6.g.g.8.g.>.` s R R q 4 @ @ 1 * - q R 7 - , V d d D h M h h h v M ",
"D l V k k N H L #.^ V H #.%.6.3.3.-.*.~ -.#.%.8.0.6.0.p.3.%.%.%.g.g.#.-.8.u.E 6 $ % % o + * 3 * 3 7 7 7 < A D d D M j F F h h v ",
"V d N < k H J F K l < A K K %.6.-.-.#.H *.H -.8.#.| $.%.%.%.| #.#.! C C Q ) s $ # # o o + 1 * 4 6 8 w x Q @.K D D F c F F m m h ",
"l d < d l D D D A < < J H V } 3.3.3.K #.>.A #.&.F K } #.#.#.%.:.L V 8 5 y = O O O # o o $ $ 1 6 w E &.d.e.-.K F K D D c F F F F ",
"N k d N V D l A V < N K V l } 3.3.-.} ;.%.L #.%.K L } } L H L #.%.^ H i e O O o % % @ @ * 2 q R Q p._./.s.y.-.K K F } K K F m c ",
"d d < d N d d V l N H F l H ;.6.<.#.%.3.3.$.%.;.#.| | | L H H D ^ #.} K C i t 8 R W / ' ) ' e.d.f.(.]._.h.g.g.#.} @.*.#.@.K F K ",
"d d < < < , 0 D V S J F g H #.;.,.%.%.;.3.$.} #.%.} #.| #.K V V V H ^ ~ J Z S *.L.(.)._.(.(.).`.(.I.`.`.L.g.g.y.#.-.g.p.-.#.-.y.",
"< < 0 0 i , 0 V V S H c l V K =.%.%.L | K K K H ~ } } } | K J E W N V Q E S &.H.`.`.`.`.).].).`.`.`.`.).I.z.h.g.-.g.l.g.p.e.u.g.",
"N < 9 0 , - > 0 0 > k D l H D ^ #.#.D K K b J k V H K H K D N C ) _ ' ^ V ^ x._._.).).`.).).U.).`.).).I.P.P.z.g.e.p.g.h.k.d.e.g.",
"0 < 0 > > : - - - - p J V J l d ~ K D K v J ~ V < N H K L J N ; C D #._ S *.).].*XI.I.L.L.^.(.I.(.(.^.z.L.L.s.k.e.e.k.p.p.d.k.d.",
"0 < , , , - - - & - 0 H V J < 8 H c V H K H G D < r V K L J V 4 t w ! / W g.`.[.`.L.L.L.L.L.L.^.^.L.L.P.L.L.s.h.3.-.y.g.p.e.e.e.",
"x 9 0 , , > ; 3 3 - 8 C : > * > D J D l c H D A D p k D H L J w 1 * R R R s.`.`.).I.L.L.L.L.^.L.L.L.L.L.s.3.p.3.-.p.8.3.e.g.e.e.",
"x 0 0 0 0 7 3 7 3 - - 8 ; * X > F D V < N D V p D d 0 V H D F l 4 t a q C l.`.`.).L.I.L.L.L.L.L.L.L.L.z.g.3.-.p.3.p.q.3.g.y.y.y.",
"k k 0 9 7 7 7 3 3 4 * * y = @ < J D B - i D w * l k 4 k ! D c c s 2 u 6 W P.].].I.I.L.(.L.L.L.f.s.f.L.L.h.p.>.-.3.g.z.x.g.g.g.k.",
"x z w 0 w 7 7 7 7 4 * + @ + @ , H J k X = N 8   : 0 = ; C H A H S 4 y u / ).`.].).L.I.L.L.s.z.F.f.z.z.^.L.p.-.-.p.z.P.P.z.g.g.g.",
"z z w 9 w w q 7 7 3 + + . X . * k D < * @ * *   X * + . 0 A C V H w 4 i ) ).].].`.).(.(.).L.z.z.L.f.L./.^.z.p.-.3.k.P.I.P.z.g.k.",
"z w w w 9 0 q q q 3 * * + + @ X * 8 4 * + * + + X +   . - C R l J N 4 s w.].[.*X].`.`.`.).L.L.z.f.f.F.^.).^.p.=.e.g.z.L.P.x.g.g.",
"x z w w w w w q q 3 3 * + * + + + * * + * $ + + . X   . = 8 z k H A a s e.`.].*X`.[.`.`.[.(.L.z.L.F.L.(.).^.z.-.-.3.5.L.P.z.-.g.",
"R z z z w w P q q q 3 4 * = = + + * + * = + + = @ +   + @ 1 i 8 C C s s t.`.`.*X].].].*X=X_.L.^./.L.L.L.^.).).z.h.3.5.f.P.P.8.g.",
"x z R z w w z w q q 6 6 4 1 1 = + * * $ * 1 + @ = + o + 2 = e e 8 p a s :.I.`.*X].*X`.].].).L.L.).^.L.^.L.).).L.h.F.L.I.I.P.z.L."
};
